<svg width="95" height="95" viewBox="0 0 95 95" fill="none" xmlns="http://www.w3.org/2000/svg">
<path d="M17.3583 32.9537C16.2449 34.2712 14.4634 35.3104 12.682 35.162C12.4593 33.3805 13.3315 31.4877 14.3521 30.3186C15.4655 28.964 17.414 27.999 18.9913 27.9248C19.1769 29.7805 18.4531 31.5991 17.3583 32.9537ZM18.9727 35.5145C16.3933 35.3661 14.1851 36.9805 12.9603 36.9805C11.717 36.9805 9.84278 35.5888 7.80153 35.6259C5.14791 35.663 2.67985 37.1661 1.32521 39.5599C-1.45832 44.3476 0.601491 51.4363 3.29223 55.3332C4.60976 57.2631 6.18709 59.3786 8.26545 59.3044C10.2325 59.2301 11.0119 58.024 13.3871 58.024C15.781 58.024 16.4676 59.3044 18.5459 59.2673C20.6985 59.2301 22.0532 57.3374 23.3707 55.4074C24.8738 53.2177 25.4862 51.0837 25.5233 50.9724C25.4862 50.9353 21.3666 49.3579 21.3295 44.6074C21.2923 40.6362 24.5769 38.7434 24.7253 38.6321C22.8697 35.8857 19.9748 35.5888 18.9727 35.5145ZM33.8739 30.1331V59.0631H38.3646V49.1724H44.5811C50.2595 49.1724 54.2492 45.2754 54.2492 39.6342C54.2492 33.9929 50.3338 30.1331 44.7296 30.1331H33.8739ZM38.3646 33.9187H43.542C47.4389 33.9187 49.6657 35.997 49.6657 39.6527C49.6657 43.3084 47.4389 45.4053 43.5234 45.4053H38.3646V33.9187ZM62.4513 59.2858C65.272 59.2858 67.8885 57.8569 69.0761 55.593H69.1689V59.0631H73.3256V44.663C73.3256 40.4878 69.9854 37.797 64.8452 37.797C60.0761 37.797 56.5503 40.5249 56.4204 44.2734H60.4658C60.7998 42.4919 62.4514 41.3228 64.7153 41.3228C67.4617 41.3228 69.0019 42.6032 69.0019 44.96V46.5558L63.3977 46.8899C58.1833 47.2053 55.3626 49.3394 55.3626 53.0507C55.3626 56.7992 58.2761 59.2858 62.4513 59.2858ZM63.6575 55.8528C61.2637 55.8528 59.7421 54.7023 59.7421 52.9394C59.7421 51.1208 61.208 50.0631 64.0101 49.8961L69.0019 49.5806V51.2136C69.0019 53.9229 66.7009 55.8528 63.6575 55.8528ZM78.8741 66.9312C83.2535 66.9312 85.3133 65.2611 87.1133 60.1951L95 38.0754H90.435L85.1463 55.1662H85.0536L79.7649 38.0754H75.07L82.6783 59.1374L82.27 60.4178C81.5834 62.5889 80.47 63.424 78.4844 63.424C78.1319 63.424 77.4453 63.3869 77.1669 63.3498V66.8199C77.4267 66.8941 78.5401 66.9312 78.8741 66.9312Z" fill="black"/>
</svg>
