<svg width="15" height="15" viewBox="0 0 15 15" fill="none" xmlns="http://www.w3.org/2000/svg">
<path d="M1.25101 6.25C1.25033 6.31419 1.25 6.37919 1.25 6.445V9.805C1.25 10.5027 1.28658 11.1061 1.39916 11.6128C1.51333 12.1265 1.71381 12.5782 2.0678 12.9322C2.4218 13.2862 2.87353 13.4867 3.38724 13.6008C3.89386 13.7134 4.49723 13.75 5.195 13.75H9.805C10.5027 13.75 11.1061 13.7134 11.6128 13.6008C12.1265 13.4867 12.5782 13.2862 12.9322 12.9322C13.2862 12.5782 13.4867 12.1265 13.6008 11.6128C13.7134 11.1061 13.75 10.5027 13.75 9.805V6.445C13.75 6.37919 13.7497 6.31419 13.749 6.25H1.25101Z" fill="#0DCB80"/>
<path d="M3.12494 2.71693V1.875C3.12494 1.52983 3.40476 1.25 3.74994 1.25C4.09512 1.25 4.37494 1.52983 4.37494 1.875V2.52173C4.6319 2.5063 4.90529 2.5 5.19494 2.5H9.80494C10.0946 2.5 10.368 2.5063 10.6249 2.52173V1.875C10.6249 1.52983 10.9047 1.25 11.2499 1.25C11.5951 1.25 11.8749 1.52983 11.8749 1.875V2.71693C12.2806 2.83771 12.6397 3.02537 12.9321 3.3178C13.2861 3.6718 13.4866 4.12352 13.6007 4.63724C13.6265 4.75311 13.6483 4.87404 13.6666 5H1.33331C1.35158 4.87404 1.37336 4.75311 1.39911 4.63724C1.51328 4.12352 1.71375 3.6718 2.06774 3.3178C2.36017 3.02537 2.71929 2.83771 3.12494 2.71693Z" fill="#0DCB80"/>
</svg>
