<svg width="18" height="18" viewBox="0 0 18 18" fill="none" xmlns="http://www.w3.org/2000/svg">
<g clip-path="url(#clip0_27_594)">
<path d="M14.5778 4.45575C13.5197 5.71238 12.1652 6.68607 10.6206 7.27332L10.5542 7.29525C10.7229 7.6395 10.8844 7.98769 11.0323 8.33982C11.0886 8.46638 11.1375 8.59294 11.187 8.71219C11.7084 8.65482 12.3137 8.62219 12.9263 8.62219C14.0867 8.62219 15.2196 8.73919 16.3142 8.9625L16.2056 8.94394C16.1944 7.23394 15.5829 5.66963 14.5721 4.44732L14.5817 4.45913L14.5778 4.45575ZM7.31307 2.00775C8.21026 3.21713 9.09957 4.59525 9.89945 6.03019L9.99957 6.22538C11.5251 5.71463 12.8059 4.81294 13.7649 3.63788L13.7768 3.62325C12.5128 2.49488 10.836 1.80525 8.99888 1.80525C8.40095 1.80525 7.81988 1.87838 7.26413 2.01619L7.31363 2.00607L7.31307 2.00775ZM1.94626 7.53488C4.31945 7.5225 6.6122 7.203 8.79526 6.61463L8.60795 6.65738C7.6787 5.02669 6.79557 3.666 5.84495 2.35763L5.93663 2.49038C3.91388 3.45844 2.43395 5.28375 1.95582 7.48257L1.94738 7.53038L1.94626 7.53488ZM3.64726 13.8293C5.00851 11.6456 7.02788 9.98232 9.4247 9.09975L9.50401 9.07444C9.59907 9.04294 9.69357 9.01538 9.78863 8.99007C9.60582 8.57888 9.40895 8.16994 9.20363 7.76719C7.01663 8.41632 4.50395 8.79038 1.90407 8.79038C1.86695 8.79038 1.83038 8.79038 1.79382 8.79038H1.79945L1.79663 9.00975C1.79663 9.01144 1.79663 9.01313 1.79663 9.01482C1.79663 10.8694 2.49976 12.5597 3.65345 13.8343L3.64782 13.8281L3.64726 13.8293ZM11.8153 15.6428C11.4317 13.5621 10.8984 11.7294 10.2049 9.97838L10.2758 10.1814L10.2296 10.1955C7.80301 10.9526 5.82751 12.5535 4.60351 14.6477L4.5782 14.6944C5.78476 15.6439 7.32601 16.2171 9.00113 16.2171C10.0164 16.2171 10.9823 16.0067 11.8575 15.627L11.8108 15.645L11.8153 15.6428ZM16.1134 10.1544C15.2297 9.88782 14.2144 9.73425 13.1631 9.73425C12.6208 9.73425 12.0881 9.77532 11.5678 9.85406L11.6263 9.84675C12.1776 11.289 12.6624 13.0131 12.9966 14.7906L13.0269 14.9841C14.6436 13.8816 15.7793 12.1755 16.1106 10.1972L16.1162 10.155L16.1134 10.1544ZM9.00001 17.4354C4.34138 17.4354 0.564758 13.6588 0.564758 9.00019C0.564758 4.34157 4.34138 0.564941 9.00001 0.564941C13.6586 0.564941 17.4353 4.34157 17.4353 9.00019C17.4291 13.656 13.6558 17.4287 9.00001 17.4354Z" fill="white"/>
</g>
<defs>
<clipPath id="clip0_27_594">
<rect width="18" height="18" fill="white"/>
</clipPath>
</defs>
</svg>
