<svg width="22" height="22" viewBox="0 0 22 22" fill="none" xmlns="http://www.w3.org/2000/svg">
<g clip-path="url(#clip0_39_57)">
<path fill-rule="evenodd" clip-rule="evenodd" d="M14.2791 6.179H19.8759V4.57627H14.2791V6.179ZM17.0379 9.3979C15.7894 9.3979 14.8412 10.1714 14.7499 11.6006H19.2291C18.9255 9.9044 18.172 9.3979 17.0379 9.3979ZM17.2128 16.0269C18.3656 16.0269 19.2115 15.2987 19.3842 14.6852H21.8086C21.1156 16.904 19.6845 18.1501 17.1149 18.1501C13.8358 18.1501 11.9955 15.8179 11.9955 12.7231C11.9955 5.43511 22.5115 5.17381 21.9835 13.4037H14.7499C14.8203 15.0749 15.51 16.0269 17.2128 16.0269ZM6.303 15.7063C7.6263 15.7063 8.5525 15.1972 8.5525 13.8237C8.5525 12.399 7.7341 11.7811 6.3602 11.7811H3.0448V15.7063H6.303ZM6.1281 9.63853C7.2292 9.63853 7.9893 9.12598 7.9893 7.93535C7.9893 6.68111 7.1049 6.29395 5.896 6.29395H3.0448V9.63853H6.1281ZM6.5164 3.8501C9.1245 3.8501 10.9373 4.71217 10.9373 7.39448C10.9373 8.72258 10.4038 9.71231 9.0563 10.3792C10.7811 10.8916 11.5973 12.2369 11.5973 14.0047C11.5973 16.8108 9.372 18.1501 6.71 18.1501H0V3.8501H6.5164Z" fill="white"/>
</g>
<defs>
<clipPath id="clip0_39_57">
<rect width="22" height="22" fill="white"/>
</clipPath>
</defs>
</svg>
