<svg width="235" height="36" viewBox="0 0 235 36" fill="none" xmlns="http://www.w3.org/2000/svg">
<rect x="80" y="7" width="35" height="22" rx="2" fill="white"/>
<path fill-rule="evenodd" clip-rule="evenodd" d="M94.0993 13.9336C94.5072 13.9336 94.8492 14.0159 95.2655 14.2147V15.2647C94.8712 14.9018 94.5291 14.7499 94.0768 14.7499C93.1877 14.7499 92.4884 15.4429 92.4884 16.3215C92.4884 17.248 93.166 17.8997 94.1209 17.8997C94.5507 17.8997 94.8864 17.7557 95.2655 17.3986V18.4492C94.8344 18.6403 94.485 18.7158 94.0768 18.7158C92.6332 18.7158 91.5115 17.6729 91.5115 16.328C91.5115 14.9975 92.663 13.9336 94.0993 13.9336ZM89.6172 13.9625C90.1501 13.9625 90.6376 14.1342 91.0453 14.4699L90.5492 15.0814C90.3023 14.8208 90.0688 14.7109 89.7847 14.7109C89.3761 14.7109 89.0786 14.9299 89.0786 15.2181C89.0786 15.4652 89.2456 15.596 89.8145 15.7941C90.8929 16.1654 91.2125 16.4946 91.2125 17.2215C91.2125 18.1073 90.5213 18.7239 89.5362 18.7239C88.8148 18.7239 88.2903 18.4565 87.8535 17.8529L88.4659 17.2977C88.6842 17.6951 89.0484 17.9079 89.5006 17.9079C89.9235 17.9079 90.2366 17.6332 90.2366 17.2625C90.2366 17.0703 90.1418 16.9056 89.9524 16.7891C89.8571 16.7339 89.6682 16.6517 89.297 16.5285C88.4067 16.2267 88.1012 15.9041 88.1012 15.2738C88.1012 14.5249 88.7572 13.9625 89.6172 13.9625ZM100.451 14.0423H101.486L102.782 17.1158L104.095 14.0423H105.123L103.023 18.7355H102.513L100.451 14.0423ZM82.1114 14.0493H83.5029C85.0404 14.0493 86.1122 14.99 86.1122 16.3404C86.1122 17.0138 85.7843 17.6649 85.2298 18.0969C84.7633 18.4616 84.2317 18.6251 83.4956 18.6251H82.1114V14.0493ZM86.5484 14.0493H87.4964V18.6251H86.5484V14.0493ZM105.552 14.0493H108.24V14.8247H106.499V15.8403H108.176V16.6153H106.499V17.8504H108.24V18.6251H105.552L105.552 14.0493ZM108.868 14.0493H110.274C111.367 14.0493 111.994 14.5436 111.994 15.4003C111.994 16.1009 111.601 16.5606 110.887 16.6975L112.416 18.6251H111.251L109.938 16.7869H109.815V18.6251H108.868V14.0493ZM109.815 14.77V16.1558H110.092C110.697 16.1558 111.018 15.9083 111.018 15.4484C111.018 15.0031 110.697 14.77 110.107 14.77H109.815ZM83.0587 14.8246V17.8504H83.3131C83.9257 17.8504 84.3127 17.7399 84.6105 17.4867C84.9384 17.2119 85.1356 16.773 85.1356 16.3338C85.1356 15.8954 84.9384 15.4696 84.6105 15.1947C84.2974 14.9279 83.9257 14.8246 83.3131 14.8246H83.0587Z" fill="black"/>
<path fill-rule="evenodd" clip-rule="evenodd" d="M114.999 8.94196C114.999 8.94208 114.999 8.9422 114.999 8.94232L114.999 19.1888L114.999 19.1888V8.94196ZM89.2222 29H113C114.085 29 114.968 28.1358 114.999 27.058V19.1888C113.797 20.0347 104.8 26.0785 89.2222 29Z" fill="#F47216"/>
<path fill-rule="evenodd" clip-rule="evenodd" d="M100.745 16.3347C100.745 14.9903 99.5879 13.902 98.1599 13.902L98.1599 13.902C96.7319 13.902 95.5743 14.9903 95.5743 16.3347V16.3363C95.5743 17.6807 96.7319 18.7705 98.1599 18.7705C99.5879 18.7705 100.745 17.6807 100.745 16.3363V16.3347ZM114.999 19H114.999L114.999 6.46143V19Z" fill="#F47216"/>
<rect x="160" y="7" width="35" height="22" rx="2" fill="white"/>
<path d="M174.397 21.6643L175.467 15.39H177.177L176.107 21.6643H174.397ZM182.286 15.5252C181.947 15.3981 181.416 15.2617 180.753 15.2617C179.063 15.2617 177.873 16.1127 177.862 17.3324C177.853 18.2339 178.712 18.7369 179.361 19.037C180.027 19.3446 180.25 19.5407 180.247 19.8153C180.243 20.2359 179.716 20.428 179.224 20.428C178.54 20.428 178.176 20.3329 177.614 20.0987L177.394 19.999L177.154 21.4035C177.553 21.5788 178.292 21.7304 179.059 21.7383C180.857 21.7383 182.024 20.897 182.037 19.5946C182.043 18.8808 181.588 18.3377 180.601 17.8898C180.003 17.5996 179.637 17.4059 179.641 17.112C179.641 16.8512 179.951 16.5723 180.621 16.5723C181.18 16.5636 181.585 16.6856 181.901 16.8127L182.054 16.8851L182.286 15.5252ZM186.687 15.3899H185.365C184.956 15.3899 184.649 15.5016 184.47 15.9102L181.93 21.6602H183.726C183.726 21.6602 184.019 20.8871 184.085 20.7173C184.282 20.7173 186.026 20.72 186.276 20.72C186.327 20.9397 186.484 21.6602 186.484 21.6602H188.071L186.687 15.3897V15.3899ZM184.59 19.4415C184.731 19.08 185.271 17.6875 185.271 17.6875C185.261 17.7042 185.412 17.3243 185.498 17.0887L185.614 17.6296C185.614 17.6296 185.941 19.1274 186.009 19.4414H184.59V19.4415ZM172.946 15.3899L171.271 19.6687L171.093 18.7992C170.781 17.7968 169.81 16.7109 168.724 16.1672L170.255 21.6543L172.065 21.6523L174.757 15.3898L172.946 15.3898" fill="#0E4595"/>
<path d="M169.709 15.3896H166.951L166.929 15.5202C169.075 16.0396 170.494 17.2946 171.084 18.8029L170.484 15.9196C170.381 15.5222 170.08 15.4037 169.709 15.3898" fill="#F2AE14"/>
<rect x="40" y="7" width="35" height="22" rx="2" fill="white"/>
<g clip-path="url(#clip0_27_591)">
<path d="M70.8846 8.58008H45.1154C43.949 8.58008 43 9.5079 43 10.6483V25.3518C43 26.4923 43.949 27.4201 45.1154 27.4201H70.8846C72.051 27.4201 73 26.4923 73 25.3518V10.6483C73 9.5079 72.051 8.58008 70.8846 8.58008Z" fill="white"/>
<path d="M49.5309 14.9182C49.2099 14.6975 48.7911 14.5869 48.2744 14.5869H46.2741C46.1157 14.5869 46.0282 14.6661 46.0115 14.8244L45.1989 19.9254C45.1905 19.9755 45.203 20.0213 45.2364 20.0629C45.2696 20.1047 45.3114 20.1254 45.3614 20.1254H46.3115C46.4782 20.1254 46.5698 20.0464 46.5866 19.8879L46.8116 18.5127C46.8198 18.4461 46.8491 18.3919 46.8992 18.3502C46.9492 18.3085 47.0117 18.2813 47.0867 18.2688C47.1617 18.2564 47.2324 18.2502 47.2992 18.2502C47.3658 18.2502 47.445 18.2544 47.5368 18.2627C47.6284 18.271 47.6868 18.2751 47.7118 18.2751C48.4286 18.2751 48.9912 18.0731 49.3996 17.6687C49.8079 17.2646 50.0123 16.7041 50.0123 15.9872C50.0123 15.4955 49.8517 15.1391 49.5309 14.9182ZM48.4995 16.4498C48.4577 16.7416 48.3495 16.9332 48.1745 17.0249C47.9994 17.1167 47.7494 17.1623 47.4243 17.1623L47.0117 17.1749L47.2243 15.8371C47.2409 15.7455 47.2951 15.6996 47.3868 15.6996H47.6244C47.9577 15.6996 48.1995 15.7477 48.3496 15.8434C48.4995 15.9393 48.5495 16.1415 48.4995 16.4498Z" fill="#003087"/>
<path d="M70.6411 14.5869H69.716C69.6241 14.5869 69.57 14.6328 69.5534 14.7244L68.7407 19.9254L68.7282 19.9504C68.7282 19.9922 68.7449 20.0316 68.7783 20.0692C68.8115 20.1066 68.8533 20.1254 68.9033 20.1254H69.7285C69.8866 20.1254 69.9742 20.0464 69.9911 19.8879L70.8037 14.7744V14.7619C70.8037 14.6453 70.7493 14.5869 70.6411 14.5869Z" fill="#009CDE"/>
<path d="M59.464 16.5998C59.464 16.5582 59.4472 16.5186 59.4141 16.4811C59.3806 16.4436 59.3431 16.4248 59.3015 16.4248H58.3388C58.247 16.4248 58.172 16.4667 58.1138 16.5498L56.7886 18.5003L56.2385 16.6249C56.1967 16.4916 56.105 16.4248 55.9634 16.4248H55.0257C54.9839 16.4248 54.9464 16.4436 54.9132 16.4811C54.8798 16.5186 54.8632 16.5583 54.8632 16.5998C54.8632 16.6166 54.9445 16.8624 55.107 17.3375C55.2695 17.8126 55.4445 18.3252 55.6321 18.8754C55.8196 19.4254 55.9175 19.7173 55.9259 19.7504C55.2424 20.684 54.9007 21.1841 54.9007 21.2507C54.9007 21.3591 54.9549 21.4133 55.0632 21.4133H56.0259C56.1176 21.4133 56.1926 21.3717 56.251 21.2883L59.4391 16.6873C59.4557 16.6708 59.464 16.6417 59.464 16.5998Z" fill="#003087"/>
<path d="M68.4282 16.425H67.4779C67.3612 16.425 67.2905 16.5625 67.2655 16.8376C67.0486 16.5043 66.6529 16.3374 66.0777 16.3374C65.4776 16.3374 64.967 16.5625 64.5462 17.0126C64.1252 17.4627 63.9149 17.992 63.9149 18.6004C63.9149 19.0923 64.0586 19.484 64.3461 19.7756C64.6337 20.0675 65.0191 20.2132 65.5027 20.2132C65.7443 20.2132 65.9902 20.1631 66.2402 20.0631C66.4903 19.9631 66.686 19.8298 66.8279 19.6631C66.8279 19.6714 66.8194 19.7089 66.8029 19.7755C66.7861 19.8423 66.7779 19.8924 66.7779 19.9256C66.7779 20.0591 66.8319 20.1256 66.9404 20.1256H67.8032C67.9613 20.1256 68.0531 20.0466 68.0781 19.8881L68.5907 16.625C68.5989 16.575 68.5864 16.5292 68.5532 16.4875C68.5198 16.4459 68.4782 16.425 68.4282 16.425ZM66.7966 18.8879C66.5841 19.0963 66.3278 19.2005 66.0278 19.2005C65.7859 19.2005 65.5902 19.1339 65.4401 19.0004C65.2901 18.8673 65.2151 18.6839 65.2151 18.4503C65.2151 18.1421 65.3192 17.8815 65.5277 17.669C65.7358 17.4564 65.9944 17.3502 66.3028 17.3502C66.536 17.3502 66.7298 17.4189 66.8841 17.5564C67.0382 17.694 67.1155 17.8837 67.1155 18.1254C67.1155 18.4254 67.0091 18.6797 66.7966 18.8879Z" fill="#009CDE"/>
<path d="M54.2256 16.425H53.2754C53.1586 16.425 53.0879 16.5625 53.0628 16.8376C52.8378 16.5043 52.4419 16.3374 51.8751 16.3374C51.275 16.3374 50.7644 16.5625 50.3436 17.0126C49.9226 17.4627 49.7122 17.992 49.7122 18.6004C49.7122 19.0923 49.856 19.484 50.1436 19.7756C50.4311 20.0675 50.8165 20.2132 51.3 20.2132C51.5333 20.2132 51.7751 20.1631 52.0251 20.0631C52.2752 19.9631 52.4752 19.8298 52.6253 19.6631C52.5918 19.7631 52.5752 19.8506 52.5752 19.9256C52.5752 20.0591 52.6294 20.1256 52.7378 20.1256H53.6004C53.7587 20.1256 53.8504 20.0466 53.8755 19.8881L54.388 16.625C54.3963 16.575 54.3838 16.5292 54.3506 16.4875C54.3172 16.4459 54.2756 16.425 54.2256 16.425ZM52.594 18.8941C52.3814 19.0986 52.1209 19.2005 51.8127 19.2005C51.5708 19.2005 51.377 19.1339 51.2313 19.0004C51.0853 18.8673 51.0125 18.6839 51.0125 18.4503C51.0125 18.1421 51.1166 17.8815 51.3251 17.669C51.5333 17.4564 51.7917 17.3502 52.1002 17.3502C52.3335 17.3502 52.5272 17.4189 52.6816 17.5564C52.8357 17.694 52.9129 17.8837 52.9129 18.1254C52.9129 18.4338 52.8066 18.6901 52.594 18.8941Z" fill="#003087"/>
<path d="M63.7335 14.9182C63.4126 14.6975 62.9938 14.5869 62.477 14.5869H60.4892C60.3224 14.5869 60.2307 14.6661 60.2141 14.8244L59.4015 19.9253C59.393 19.9754 59.4055 20.0213 59.439 20.0629C59.4721 20.1046 59.5139 20.1254 59.564 20.1254H60.5891C60.6891 20.1254 60.7558 20.0713 60.7892 19.9629L61.0142 18.5127C61.0225 18.4461 61.0517 18.3919 61.1017 18.3501C61.1518 18.3085 61.2142 18.2812 61.2893 18.2687C61.3643 18.2564 61.435 18.2501 61.5019 18.2501C61.5685 18.2501 61.6476 18.2543 61.7393 18.2626C61.831 18.271 61.8895 18.275 61.9143 18.275C62.6312 18.275 63.1937 18.0731 63.6022 17.6687C64.0106 17.2645 64.2148 16.704 64.2148 15.9871C64.2148 15.4955 64.0543 15.1391 63.7335 14.9182ZM62.452 16.9748C62.2686 17.0998 61.9936 17.1623 61.6269 17.1623L61.2268 17.1749L61.4394 15.8371C61.4559 15.7455 61.51 15.6996 61.6019 15.6996H61.8268C62.0101 15.6996 62.156 15.708 62.2645 15.7246C62.3727 15.7414 62.477 15.7933 62.577 15.8808C62.6771 15.9684 62.7271 16.0955 62.7271 16.2622C62.7271 16.6123 62.6353 16.8498 62.452 16.9748Z" fill="#009CDE"/>
</g>
<rect y="7" width="35" height="22" rx="2" fill="white"/>
<path d="M19.738 21.1473H14.6091V12.002H19.738V21.1473Z" fill="#6C6BBD"/>
<path d="M14.9346 16.575C14.9346 14.7199 15.8101 13.0673 17.1734 12.0024C16.1764 11.2236 14.9182 10.7588 13.5509 10.7588C10.3137 10.7588 7.68964 13.3628 7.68964 16.575C7.68964 19.7873 10.3137 22.3913 13.5509 22.3913C14.9182 22.3913 16.1764 21.9265 17.1734 21.1477C15.8101 20.0828 14.9346 18.4302 14.9346 16.575Z" fill="#EB001B"/>
<path d="M26.6575 16.575C26.6575 19.7873 24.0334 22.3913 20.7963 22.3913C19.4289 22.3913 18.1707 21.9265 17.1734 21.1477C18.5371 20.0828 19.4125 18.4302 19.4125 16.575C19.4125 14.7199 18.5371 13.0673 17.1734 12.0024C18.1707 11.2236 19.4289 10.7588 20.7963 10.7588C24.0334 10.7588 26.6575 13.3628 26.6575 16.575Z" fill="#0099DF"/>
<path d="M21.4734 23.7314C21.5416 23.7314 21.6396 23.7444 21.7145 23.7736L21.6102 24.0901C21.5386 24.0609 21.4671 24.0513 21.3985 24.0513C21.1771 24.0513 21.0664 24.1933 21.0664 24.4484V25.3145H20.7277V23.7702H21.063V23.9577C21.151 23.822 21.2781 23.7314 21.4734 23.7314Z" fill="#231F20"/>
<path d="M20.2219 24.0772H19.6685V24.7749C19.6685 24.9299 19.7236 25.0334 19.8932 25.0334C19.9812 25.0334 20.0918 25.0042 20.1925 24.9461L20.2901 25.2334C20.1828 25.3078 20.0136 25.3533 19.8671 25.3533C19.4665 25.3533 19.3267 25.1399 19.3267 24.7812V24.0772H19.0107V23.7702H19.3267V23.3018H19.6685V23.7702H20.2219V24.0772Z" fill="#231F20"/>
<path fill-rule="evenodd" clip-rule="evenodd" d="M16.3079 23.7314C16.7444 23.7314 17.044 24.0609 17.0474 24.5424C17.0474 24.5871 17.0441 24.6286 17.0407 24.6704L17.0406 24.6714H15.8849C15.9337 24.9491 16.1324 25.0494 16.3504 25.0494C16.5066 25.0494 16.6728 24.9913 16.8029 24.8877L16.9691 25.1366C16.7801 25.2949 16.5655 25.3529 16.331 25.3529C15.8652 25.3529 15.5331 25.0331 15.5331 24.5424C15.5331 24.0609 15.8521 23.7314 16.3079 23.7314ZM16.3016 24.0317C16.0605 24.0317 15.9241 24.1837 15.8879 24.4067H16.6955C16.6597 24.1674 16.5196 24.0317 16.3016 24.0317Z" fill="#231F20"/>
<path d="M18.5351 24.1644C18.4408 24.106 18.2489 24.0317 18.0502 24.0317C17.8647 24.0317 17.754 24.0997 17.754 24.2129C17.754 24.316 17.871 24.3453 18.0174 24.3645L18.177 24.387C18.5157 24.4359 18.7207 24.5779 18.7207 24.8493C18.7207 25.1433 18.4602 25.3533 18.0111 25.3533C17.7569 25.3533 17.5225 25.2885 17.3369 25.1529L17.4964 24.891C17.6105 24.9783 17.78 25.0526 18.0144 25.0526C18.2456 25.0526 18.3693 24.985 18.3693 24.8652C18.3693 24.7783 18.2813 24.7295 18.0957 24.704L17.9362 24.6814C17.5877 24.6326 17.3988 24.4777 17.3988 24.2258C17.3988 23.9189 17.6529 23.7314 18.0469 23.7314C18.2943 23.7314 18.5191 23.7865 18.6816 23.893L18.5351 24.1644Z" fill="#231F20"/>
<path fill-rule="evenodd" clip-rule="evenodd" d="M23.0465 23.794C22.9436 23.7522 22.8319 23.7314 22.7111 23.7314C22.5904 23.7314 22.4785 23.7522 22.3756 23.794C22.2728 23.8354 22.1845 23.8927 22.1099 23.9655C22.0354 24.0384 21.9769 24.1245 21.9344 24.2237C21.8919 24.3231 21.8707 24.4311 21.8707 24.5475C21.8707 24.664 21.8919 24.772 21.9344 24.8715C21.9769 24.9706 22.0354 25.0571 22.1099 25.13C22.1845 25.2028 22.2728 25.2597 22.3756 25.3015C22.4785 25.343 22.5904 25.3637 22.7111 25.3637C22.8319 25.3637 22.9436 25.343 23.0465 25.3015C23.1494 25.2597 23.2385 25.2028 23.3134 25.13C23.3886 25.0571 23.4472 24.9706 23.4896 24.8715C23.5321 24.772 23.5534 24.664 23.5534 24.5475C23.5534 24.4311 23.5321 24.3231 23.4896 24.2237C23.4472 24.1245 23.3886 24.0384 23.3134 23.9655C23.2385 23.8927 23.1494 23.8354 23.0465 23.794ZM22.5169 24.0868C22.5769 24.0628 22.6414 24.0506 22.7111 24.0506C22.7808 24.0506 22.8456 24.0628 22.9053 24.0868C22.9653 24.1112 23.0174 24.1452 23.061 24.1889C23.1054 24.2325 23.1397 24.285 23.165 24.346C23.19 24.4071 23.2023 24.4744 23.2023 24.5475C23.2023 24.6212 23.19 24.6881 23.165 24.7491C23.1397 24.8101 23.1054 24.8626 23.061 24.9063C23.0174 24.9499 22.9653 24.9839 22.9053 25.0083C22.8456 25.0327 22.7808 25.0446 22.7111 25.0446C22.6414 25.0446 22.5769 25.0327 22.5169 25.0083C22.4573 24.9839 22.4055 24.9499 22.3619 24.9063C22.3183 24.8626 22.284 24.8101 22.259 24.7491C22.234 24.6881 22.2218 24.6212 22.2218 24.5475C22.2218 24.4744 22.234 24.4071 22.259 24.346C22.284 24.285 22.3183 24.2325 22.3619 24.1889C22.4055 24.1452 22.4573 24.1112 22.5169 24.0868Z" fill="#231F20"/>
<path fill-rule="evenodd" clip-rule="evenodd" d="M15.1698 23.7703V24.5424V25.3145H14.8314V25.127C14.7237 25.266 14.5612 25.3533 14.3398 25.3533C13.9034 25.3533 13.5616 25.0138 13.5616 24.5424C13.5616 24.0705 13.9034 23.7314 14.3398 23.7314C14.5612 23.7314 14.7237 23.8187 14.8314 23.9578V23.7703H15.1698ZM14.3819 24.048C14.089 24.048 13.9097 24.271 13.9097 24.5424C13.9097 24.8138 14.089 25.0364 14.3819 25.0364C14.6618 25.0364 14.8508 24.8234 14.8508 24.5424C14.8508 24.2614 14.6618 24.048 14.3819 24.048Z" fill="#231F20"/>
<path d="M13.262 25.3146V24.3454C13.262 23.9804 13.0276 23.7349 12.65 23.7316C12.4514 23.7282 12.246 23.7896 12.1029 24.0063C11.9956 23.8351 11.826 23.7316 11.5882 23.7316C11.4224 23.7316 11.2595 23.78 11.1324 23.9608V23.7704H10.794V25.3146H11.1358V24.4586C11.1358 24.1905 11.2856 24.0481 11.5166 24.0481C11.7414 24.0481 11.8554 24.1934 11.8554 24.4552V25.3146H12.1972V24.4586C12.1972 24.1905 12.3537 24.0481 12.5781 24.0481C12.8095 24.0481 12.9202 24.1934 12.9202 24.4552V25.3146H13.262Z" fill="#231F20"/>
<rect x="200" y="7" width="35" height="22" rx="2" fill="white"/>
<path fill-rule="evenodd" clip-rule="evenodd" d="M213.991 23.6331V24.3969V25.1609H213.656V24.9754C213.55 25.113 213.389 25.1993 213.17 25.1993C212.738 25.1993 212.399 24.8638 212.399 24.3969C212.399 23.9305 212.738 23.5947 213.17 23.5947C213.389 23.5947 213.55 23.681 213.656 23.8186V23.6331H213.991ZM213.211 23.9078C212.922 23.9078 212.744 24.1284 212.744 24.3969C212.744 24.6655 212.922 24.8861 213.211 24.8861C213.488 24.8861 213.675 24.675 213.675 24.3969C213.675 24.1189 213.488 23.9078 213.211 23.9078ZM225.305 24.3969C225.305 24.1284 225.482 23.9078 225.772 23.9078C226.049 23.9078 226.236 24.1189 226.236 24.3969C226.236 24.675 226.049 24.8861 225.772 24.8861C225.482 24.8861 225.305 24.6655 225.305 24.3969ZM226.552 23.0195V24.3969V25.1609H226.217V24.9754C226.111 25.113 225.949 25.1993 225.73 25.1993C225.299 25.1993 224.96 24.8638 224.96 24.3969C224.96 23.9305 225.299 23.5947 225.73 23.5947C225.949 23.5947 226.111 23.681 226.217 23.8186V23.0195H226.552ZM218.147 23.8921C218.362 23.8921 218.501 24.0263 218.537 24.2627H217.738C217.773 24.0421 217.908 23.8921 218.147 23.8921ZM217.386 24.3969C217.386 23.9206 217.702 23.5947 218.153 23.5947C218.585 23.5947 218.881 23.9206 218.885 24.3969C218.885 24.4416 218.881 24.4833 218.878 24.5247H217.735C217.783 24.7998 217.979 24.8989 218.195 24.8989C218.35 24.8989 218.514 24.8411 218.643 24.739L218.807 24.9853C218.62 25.1418 218.408 25.1993 218.176 25.1993C217.715 25.1993 217.386 24.8828 217.386 24.3969ZM222.196 24.3969C222.196 24.1284 222.374 23.9078 222.663 23.9078C222.94 23.9078 223.127 24.1189 223.127 24.3969C223.127 24.675 222.94 24.8861 222.663 24.8861C222.374 24.8861 222.196 24.6655 222.196 24.3969ZM223.443 23.6331V24.3969V25.1609H223.108V24.9754C223.001 25.113 222.841 25.1993 222.622 25.1993C222.19 25.1993 221.851 24.8638 221.851 24.3969C221.851 23.9305 222.19 23.5947 222.622 23.5947C222.841 23.5947 223.001 23.681 223.108 23.8186V23.6331H223.443ZM220.305 24.3969C220.305 24.8605 220.631 25.1993 221.127 25.1993C221.359 25.1993 221.513 25.1481 221.681 25.0171L221.52 24.7486C221.394 24.8382 221.262 24.8861 221.117 24.8861C220.85 24.8828 220.653 24.6911 220.653 24.3969C220.653 24.1028 220.85 23.9111 221.117 23.9078C221.262 23.9078 221.394 23.9557 221.52 24.0454L221.681 23.7768C221.513 23.6459 221.359 23.5947 221.127 23.5947C220.631 23.5947 220.305 23.9334 220.305 24.3969ZM224.216 23.8186C224.303 23.6843 224.429 23.5947 224.622 23.5947C224.69 23.5947 224.786 23.6075 224.861 23.6363L224.757 23.9495C224.687 23.9206 224.616 23.9111 224.548 23.9111C224.329 23.9111 224.219 24.0516 224.219 24.3044V25.1609H223.884V23.6331H224.216V23.8186ZM215.647 23.7545C215.486 23.6492 215.264 23.5947 215.019 23.5947C214.629 23.5947 214.378 23.7801 214.378 24.0838C214.378 24.333 214.565 24.4866 214.909 24.5345L215.067 24.5568C215.251 24.5825 215.337 24.6304 215.337 24.7167C215.337 24.8349 215.215 24.9022 214.986 24.9022C214.754 24.9022 214.587 24.8287 214.474 24.7423L214.316 25.001C214.5 25.1353 214.732 25.1993 214.983 25.1993C215.428 25.1993 215.686 24.9915 215.686 24.7006C215.686 24.4321 215.483 24.2916 215.148 24.2437L214.99 24.221C214.845 24.2019 214.729 24.1734 214.729 24.071C214.729 23.959 214.838 23.8921 215.022 23.8921C215.218 23.8921 215.409 23.9656 215.502 24.0231L215.647 23.7545ZM219.561 23.8186C219.648 23.6843 219.774 23.5947 219.967 23.5947C220.035 23.5947 220.131 23.6075 220.205 23.6363L220.102 23.9495C220.031 23.9206 219.961 23.9111 219.893 23.9111C219.674 23.9111 219.564 24.0516 219.564 24.3044V25.1609H219.229V23.6331H219.561V23.8186ZM217.11 23.6331H216.562V23.1695H216.223V23.6331H215.911V23.9367H216.223V24.6337C216.223 24.9882 216.362 25.1993 216.758 25.1993C216.903 25.1993 217.071 25.1547 217.177 25.0811L217.08 24.7965C216.98 24.8539 216.871 24.8828 216.784 24.8828C216.617 24.8828 216.562 24.7804 216.562 24.6271V23.9367H217.11V23.6331ZM212.103 24.2019V25.1609H211.765V24.3106C211.765 24.0516 211.655 23.9078 211.427 23.9078C211.204 23.9078 211.05 24.0487 211.05 24.3139V25.1609H210.711V24.3106C210.711 24.0516 210.599 23.9078 210.377 23.9078C210.148 23.9078 209.999 24.0487 209.999 24.3139V25.1609H209.661V23.6331H209.996V23.8215C210.122 23.6426 210.283 23.5947 210.447 23.5947C210.683 23.5947 210.85 23.6971 210.956 23.8665C211.098 23.6521 211.301 23.5913 211.498 23.5947C211.871 23.598 212.103 23.8409 212.103 24.2019Z" fill="#231F20"/>
<path d="M220.61 21.037H215.536V11.9888H220.61V21.037Z" fill="#FF5F00"/>
<path d="M215.858 16.5133C215.858 14.6778 216.724 13.0428 218.073 11.9891C217.086 11.2187 215.842 10.7588 214.489 10.7588C211.286 10.7588 208.69 13.3351 208.69 16.5133C208.69 19.6914 211.286 22.2677 214.489 22.2677C215.842 22.2677 217.086 21.8079 218.073 21.0374C216.724 19.9837 215.858 18.3487 215.858 16.5133Z" fill="#EB001B"/>
<path d="M227.456 16.5133C227.456 19.6914 224.86 22.2677 221.657 22.2677C220.304 22.2677 219.059 21.8079 218.073 21.0374C219.422 19.9837 220.288 18.3487 220.288 16.5133C220.288 14.6778 219.422 13.0428 218.073 11.9891C219.059 11.2187 220.304 10.7588 221.657 10.7588C224.86 10.7588 227.456 13.3351 227.456 16.5133Z" fill="#F79E1B"/>
<rect x="120" y="7" width="35" height="22" rx="2" fill="white"/>
<path d="M124.953 15.6591H125.969L125.461 14.3662L124.953 15.6591Z" fill="#306FC5"/>
<path d="M130.356 19.9995V20.5999H132.064V21.2465H130.356V21.9393H132.249L133.126 20.9694L132.295 19.9995H130.356Z" fill="#306FC5"/>
<path d="M143.7 14.3662L143.146 15.6591H144.208L143.7 14.3662Z" fill="#306FC5"/>
<path d="M135.297 22.3082V19.6763L134.096 20.9693L135.297 22.3082Z" fill="#306FC5"/>
<path d="M137.559 20.4153C137.513 20.1382 137.328 19.9995 137.051 19.9995H136.081V20.8307H137.097C137.374 20.8307 137.559 20.6923 137.559 20.4153Z" fill="#306FC5"/>
<path d="M140.791 20.7386C140.884 20.6923 140.93 20.5536 140.93 20.4154C140.976 20.2308 140.884 20.1383 140.791 20.0921C140.699 20.0459 140.56 20.0459 140.422 20.0459H139.498V20.7848H140.422C140.56 20.7848 140.699 20.7848 140.791 20.7386Z" fill="#306FC5"/>
<path d="M147.44 13.1655V13.7196L147.163 13.1655H144.993V13.7196L144.716 13.1655H141.761C141.253 13.1655 140.837 13.258 140.468 13.4426V13.1655H138.39V13.2117V13.4426C138.159 13.258 137.882 13.1655 137.513 13.1655H130.079L129.571 14.3199L129.063 13.1655H127.401H126.708V13.7196L126.477 13.1655H126.431H124.445L123.522 15.3357L122.46 17.6906L122.44 17.7369H122.46H124.815H124.844L124.861 17.6906L125.138 16.9981H125.738L126.015 17.7369H128.693V17.6906V17.1828L128.924 17.7368H130.263L130.494 17.1828V17.6906V17.7369H131.556H136.866H136.913V16.5362H137.005C137.097 16.5362 137.097 16.5362 137.097 16.6748V17.6906H140.422V17.4136C140.699 17.5523 141.114 17.6906 141.669 17.6906H143.054L143.331 16.952H143.977L144.254 17.6906H146.932V17.229V16.9982L147.348 17.6906H147.44H147.487H149.518V13.1655H147.44H147.44ZM131.787 17.0444H131.325H131.048V16.7675V14.5047L131.002 14.6106V14.6093L129.928 17.0444H129.894H129.647H129.247L128.139 14.5047V17.0444H126.569L126.246 16.3518H124.676L124.353 17.0444H123.541L124.907 13.8121H126.061L127.354 16.9057V13.8121H127.631H128.578L128.599 13.8583H128.601L129.184 15.1263L129.602 16.0763L129.617 16.0284L130.54 13.8121H131.787V17.0444H131.787ZM134.973 14.5047H133.172V15.1049H134.927V15.7513H133.172V16.398H134.973V17.0904H132.388V13.8121H134.973V14.5047ZM138.267 15.6953C138.268 15.6964 138.27 15.6971 138.271 15.6981C138.288 15.7166 138.303 15.7351 138.316 15.7528C138.405 15.8688 138.476 16.0413 138.48 16.2941C138.48 16.2985 138.48 16.3028 138.48 16.3072C138.48 16.3097 138.481 16.3119 138.481 16.3145C138.481 16.316 138.481 16.3171 138.481 16.3185C138.482 16.3439 138.482 16.3699 138.482 16.398V17.0444H137.79V16.6749C137.79 16.4902 137.79 16.2131 137.651 16.0284C137.608 15.9848 137.563 15.9561 137.515 15.9356C137.446 15.8908 137.315 15.89 137.097 15.89H136.266V17.0444H135.481V13.8121H137.236C137.651 13.8121 137.928 13.8121 138.159 13.9506C138.386 14.0865 138.522 14.3118 138.527 14.6686C138.517 15.16 138.201 15.4296 137.975 15.5206C137.975 15.5206 138.129 15.5516 138.267 15.6953ZM139.822 17.0444H139.037V13.8121H139.822V17.0444ZM148.826 17.0444H147.81L146.332 14.597V16.6287L146.327 16.6239V17.0464H145.547V17.0444H144.762L144.485 16.3518H142.869L142.592 17.0905H141.715C141.346 17.0905 140.883 16.9982 140.607 16.7212C140.329 16.4441 140.191 16.0747 140.191 15.4745C140.191 15.0128 140.283 14.5508 140.607 14.1815C140.837 13.9042 141.253 13.8121 141.761 13.8121H142.5V14.5047H141.761C141.484 14.5047 141.346 14.5507 141.16 14.6895C141.022 14.8279 140.93 15.1049 140.93 15.4281C140.93 15.7976 140.976 16.0284 141.16 16.2131C141.299 16.3518 141.484 16.3981 141.715 16.3981H142.038L143.1 13.8585H143.562H144.254L145.547 16.9521V16.7944V15.7515V15.6592V13.8585H146.702L148.04 16.121V13.8585H148.826V17.0445H148.826V17.0444Z" fill="#306FC5"/>
<path d="M137.608 15.1585C137.622 15.1441 137.634 15.1278 137.644 15.109C137.686 15.0428 137.734 14.9236 137.708 14.7608C137.707 14.7459 137.705 14.7321 137.701 14.7187C137.701 14.715 137.701 14.7117 137.7 14.708L137.699 14.7081C137.676 14.629 137.618 14.5804 137.559 14.5509C137.467 14.5049 137.328 14.5049 137.19 14.5049H136.266V15.2438H137.19C137.328 15.2438 137.467 15.2438 137.559 15.1975C137.573 15.1905 137.585 15.1809 137.597 15.1701L137.597 15.1707C137.597 15.1707 137.602 15.1657 137.608 15.1585Z" fill="#306FC5"/>
<path d="M151.55 21.6619C151.55 21.3387 151.458 21.0153 151.319 20.7845V18.7067H151.317V18.568C151.317 18.568 149.382 18.568 149.094 18.568C148.806 18.568 148.456 18.845 148.456 18.845V18.568H146.332C146.009 18.568 145.594 18.6604 145.409 18.845V18.568H141.622V18.7067V18.8449C141.346 18.6142 140.837 18.5679 140.607 18.5679H138.113V18.7067V18.8449C137.882 18.6142 137.328 18.5679 137.051 18.5679H134.281L133.634 19.2606L133.034 18.5679H132.84H132.526H128.878V18.7066V19.0714V23.2318H132.942L133.609 22.5639L134.188 23.2318H134.234H136.576H136.682H136.728H136.774V22.7701V22.1698H137.005C137.328 22.1698 137.744 22.1698 138.067 22.0311V23.1854V23.2779H140.145V23.1854V22.0773H140.237C140.376 22.0773 140.376 22.0773 140.376 22.2158V23.1854V23.2779H146.655C147.071 23.2779 147.486 23.1854 147.717 23.0007V23.1854V23.2779H149.703C150.118 23.2779 150.534 23.2318 150.811 23.047C151.236 22.7919 151.504 22.3404 151.544 21.8019C151.546 21.786 151.548 21.77 151.55 21.754L151.547 21.7515C151.549 21.7216 151.55 21.692 151.55 21.6619ZM137.005 21.3849H136.081V21.5231V21.8003V22.0774V22.5853H134.564L133.68 21.5694L133.677 21.5728L133.634 21.5231L132.618 22.5853H129.663V19.3531H132.664L133.484 20.2513L133.657 20.4393L133.68 20.4151L134.65 19.3532H137.097C137.572 19.3532 138.104 19.4704 138.306 19.9536C138.33 20.0493 138.344 20.1557 138.344 20.2766C138.344 21.2 137.697 21.3849 137.005 21.3849ZM141.622 21.3386C141.715 21.4768 141.761 21.6618 141.761 21.939V22.5853H140.976V22.1698C140.976 21.9848 140.976 21.6618 140.837 21.5231C140.745 21.3849 140.56 21.3849 140.283 21.3849H139.452V22.5853H138.667V19.3069H140.422C140.791 19.3069 141.114 19.3069 141.346 19.4453C141.576 19.584 141.761 19.8148 141.761 20.1843C141.761 20.6921 141.438 20.9691 141.207 21.0616C141.438 21.1536 141.576 21.2462 141.622 21.3386ZM144.809 19.9993H143.008V20.5996H144.762V21.2462H143.008V21.8927H144.809V22.5853H142.223V19.3068H144.809V19.9993ZM146.748 22.5853H145.27V21.8928H146.748C146.886 21.8928 146.979 21.8928 147.071 21.8003C147.117 21.754 147.163 21.6619 147.163 21.5694C147.163 21.4769 147.117 21.385 147.071 21.3387C147.025 21.2925 146.932 21.2463 146.794 21.2463C146.055 21.2001 145.178 21.2463 145.178 20.2306C145.178 19.7688 145.455 19.2608 146.286 19.2608H147.81V20.0456H146.378C146.24 20.0456 146.147 20.0456 146.055 20.0918C145.963 20.1381 145.963 20.2306 145.963 20.3228C145.963 20.4614 146.055 20.5076 146.147 20.5534C146.24 20.5997 146.332 20.5997 146.424 20.5997H146.84C147.256 20.5997 147.533 20.6921 147.717 20.8768C147.856 21.0154 147.948 21.2463 147.948 21.5694C147.948 22.2619 147.533 22.5853 146.748 22.5853ZM150.719 22.2619C150.534 22.4468 150.211 22.5853 149.749 22.5853H148.272V21.8928H149.749C149.888 21.8928 149.98 21.8928 150.072 21.8003C150.118 21.754 150.165 21.6619 150.165 21.5694C150.165 21.4769 150.118 21.385 150.072 21.3387C150.026 21.2925 149.934 21.2463 149.795 21.2463C149.057 21.2001 148.179 21.2463 148.179 20.2306C148.179 19.7917 148.43 19.3953 149.05 19.2776C149.124 19.2673 149.202 19.2608 149.287 19.2608H150.811V20.0456H149.795H149.426H149.38C149.241 20.0456 149.149 20.0456 149.057 20.0918C149.01 20.1381 148.964 20.2306 148.964 20.3228C148.964 20.4614 149.01 20.5076 149.149 20.5534C149.241 20.5997 149.334 20.5997 149.426 20.5997H149.472H149.842C150.043 20.5997 150.196 20.6246 150.336 20.6737C150.463 20.72 150.887 20.9094 150.982 21.4037C150.99 21.4555 150.996 21.5096 150.996 21.5694C150.996 21.8465 150.903 22.0774 150.719 22.2619Z" fill="#306FC5"/>
<defs>
<clipPath id="clip0_27_591">
<rect width="30" height="30" fill="white" transform="translate(43 3)"/>
</clipPath>
</defs>
</svg>
