<svg width="28" height="24" viewBox="0 0 28 24" fill="none" xmlns="http://www.w3.org/2000/svg">
<g clip-path="url(#clip0_27_495)" filter="url(#filter0_d_27_495)">
<path d="M16.8476 1.23077C17.8581 1.23077 19.0045 1.632 19.647 2.30031C20.4458 2.14523 21.1996 1.86154 21.8771 1.46831C21.6156 2.26892 21.0575 2.94092 20.3325 3.36554C21.0421 3.28123 21.7215 3.09846 22.351 2.82462C21.8796 3.512 21.2845 4.11692 20.5978 4.60123C20.6039 4.74769 20.6076 4.89538 20.6076 5.04308C20.6076 9.57662 17.1971 14.7692 10.7319 14.7692C8.74792 14.7692 6.77376 14.2357 5.21992 13.2622C5.49438 13.2954 5.77438 13.3114 6.05745 13.3114C7.70422 13.3114 9.21992 12.7631 10.4242 11.8412C8.88453 11.8148 7.58607 10.8222 7.14053 9.46031C7.35407 9.49969 7.57561 9.52185 7.80207 9.52185C8.12084 9.52185 8.43284 9.48062 8.72699 9.40123C7.11899 9.088 5.90792 7.70092 5.90792 6.03877C5.90792 6.02277 5.90792 6.00862 5.90792 5.99385C6.38238 6.25108 6.9233 6.40615 7.49992 6.42462C6.55653 5.80738 5.93684 4.75938 5.93684 3.56862C5.93684 2.93969 6.10976 2.34954 6.41192 1.84492C8.14484 3.91815 10.7356 5.28492 13.6575 5.42892C13.5965 5.17785 13.5651 4.91323 13.5651 4.648C13.5651 2.75262 14.9055 1.23077 16.8476 1.23077ZM22.351 2.82462H22.3541H22.351ZM16.8476 0C14.4821 0 12.6525 1.69415 12.3781 4.032C10.4156 3.63385 8.63038 2.58708 7.34792 1.05292C7.11468 0.773538 6.7713 0.614154 6.41192 0.614154C6.37992 0.614154 6.34792 0.615385 6.31592 0.617846C5.92207 0.649231 5.56761 0.869538 5.36392 1.20985C4.93868 1.92123 4.71345 2.73662 4.71345 3.56862C4.71345 4.12308 4.81315 4.664 5.00022 5.16923C4.80022 5.392 4.68515 5.68492 4.68515 5.99385V6.03877C4.68515 7.24431 5.15838 8.36246 5.94484 9.20123C5.89992 9.41169 5.90976 9.63385 5.97868 9.84492C6.25068 10.6757 6.74422 11.3908 7.38422 11.936C6.95407 12.032 6.51038 12.0806 6.05745 12.0806C5.81807 12.0806 5.58607 12.0671 5.36761 12.04C5.31776 12.0345 5.26853 12.0314 5.2193 12.0314C4.70668 12.0314 4.24084 12.3557 4.06668 12.8529C3.87592 13.3969 4.08638 14.0018 4.57376 14.3071C6.31653 15.3988 8.50361 16 10.7319 16C14.9405 16 17.5541 14.0572 19.0051 12.4277C20.7651 10.4517 21.7891 7.82646 21.8291 5.20308C22.3996 4.72738 22.903 4.17846 23.3295 3.56431C23.4839 3.35877 23.5756 3.10215 23.5756 2.82462C23.5756 2.40554 23.3682 2.03569 23.0513 1.81292C23.1885 1.33908 23.031 0.825846 22.6482 0.512615C22.4248 0.330462 22.1516 0.237538 21.8765 0.237538C21.6667 0.237538 21.4556 0.291692 21.2655 0.402462C20.8562 0.64 20.4187 0.827077 19.9578 0.961231C19.111 0.364308 17.9621 0 16.8476 0Z" fill="white"/>
</g>
<defs>
<filter id="filter0_d_27_495" x="0" y="0" width="27.5766" height="24" filterUnits="userSpaceOnUse" color-interpolation-filters="sRGB">
<feFlood flood-opacity="0" result="BackgroundImageFix"/>
<feColorMatrix in="SourceAlpha" type="matrix" values="0 0 0 0 0 0 0 0 0 0 0 0 0 0 0 0 0 0 127 0" result="hardAlpha"/>
<feOffset dy="4"/>
<feGaussianBlur stdDeviation="2"/>
<feComposite in2="hardAlpha" operator="out"/>
<feColorMatrix type="matrix" values="0 0 0 0 0 0 0 0 0 0 0 0 0 0 0 0 0 0 0.25 0"/>
<feBlend mode="normal" in2="BackgroundImageFix" result="effect1_dropShadow_27_495"/>
<feBlend mode="normal" in="SourceGraphic" in2="effect1_dropShadow_27_495" result="shape"/>
</filter>
<clipPath id="clip0_27_495">
<rect width="19.5766" height="16" fill="white" transform="translate(4)"/>
</clipPath>
</defs>
</svg>
