<svg width="1440" height="533" viewBox="0 0 1440 533" fill="none" xmlns="http://www.w3.org/2000/svg">
<path fill-rule="evenodd" clip-rule="evenodd" d="M1439.5 82.9062L545 26.0879C545 26.0879 314.5 13.3539 159 1.99865C166 1.99907 137 1.83016 129.5 2.90738C98.8589 7.30832 68.8517 19.9097 54.5 30.6355C7.90836 65.4559 1.58172 116.672 1.04224 121.999H0V532H1440V121.999H1439.5V82.9062Z" fill="#130F41"/>
<path d="M545 26.0879L545.063 25.0899L545.055 25.0894L545 26.0879ZM1439.5 82.9062H1440.5V81.9677L1439.56 81.9082L1439.5 82.9062ZM159 1.99865L159 0.998652L158.927 2.996L159 1.99865ZM129.5 2.90738L129.358 1.91753L129.358 1.91753L129.5 2.90738ZM54.5 30.6355L55.0986 31.4365L55.0986 31.4365L54.5 30.6355ZM1.04224 121.999V122.999H1.94609L2.03715 122.1L1.04224 121.999ZM0 121.999V120.999H-1V121.999H0ZM0 532H-1V533H0V532ZM1440 532V533H1441V532H1440ZM1440 121.999H1441V120.999H1440V121.999ZM1439.5 121.999H1438.5V122.999H1439.5V121.999ZM544.937 27.0859L1439.44 83.9041L1439.56 81.9082L545.063 25.0899L544.937 27.0859ZM158.927 2.996C236.684 8.6741 333.189 14.6967 410.253 19.2997C448.785 21.6012 482.458 23.5479 506.498 24.9192C518.518 25.6048 528.129 26.1466 534.736 26.517C538.039 26.7022 540.592 26.8445 542.318 26.9406C543.181 26.9886 543.838 27.025 544.279 27.0495C544.499 27.0617 544.666 27.0709 544.777 27.0771C544.833 27.0802 544.875 27.0825 544.903 27.0841C544.917 27.0848 544.927 27.0854 544.934 27.0858C544.938 27.086 544.94 27.0861 544.942 27.0862C544.944 27.0863 544.945 27.0864 545 26.0879C545.055 25.0894 545.054 25.0894 545.053 25.0893C545.051 25.0892 545.048 25.089 545.045 25.0888C545.038 25.0885 545.027 25.0879 545.013 25.0871C544.985 25.0856 544.943 25.0832 544.888 25.0802C544.776 25.074 544.61 25.0648 544.389 25.0526C543.949 25.0281 543.292 24.9917 542.429 24.9437C540.703 24.8476 538.151 24.7053 534.848 24.5201C528.242 24.1498 518.631 23.608 506.612 22.9224C482.573 21.5512 448.902 19.6047 410.372 17.3033C333.311 12.7004 236.816 6.67842 159.073 1.00131L158.927 2.996ZM129.642 3.89722C133.312 3.37008 142.36 3.14196 149.7 3.04913C153.352 3.00295 156.551 2.99039 158.399 2.98933C159.329 2.9888 159.906 2.99121 160.032 2.99347C160.076 2.99426 160.028 2.99457 159.975 2.98907C159.953 2.98642 159.872 2.97253 159.814 2.95838C159.488 2.79994 159.125 1.70104 159.689 1.07491C159.791 1.03773 159.929 1.00638 159.962 1.00197C159.977 1.00026 160.001 0.998038 160.01 0.997397C160.033 0.995833 160.049 0.995595 160.042 0.995783C160.03 0.996085 159.987 0.996618 159.899 0.997107C159.732 0.998042 159.437 0.998678 159 0.998652L159 2.99865C159.438 2.99868 159.737 2.99804 159.91 2.99708C159.993 2.99661 160.057 2.99604 160.092 2.99516C160.096 2.99505 160.121 2.99451 160.148 2.99265C160.158 2.99193 160.183 2.98963 160.199 2.98785C160.232 2.98336 160.371 2.95194 160.473 2.91468C161.037 2.28847 160.674 1.18949 160.348 1.03097C160.29 1.01675 160.208 1.00278 160.185 1.00005C160.153 0.996728 160.127 0.995609 160.124 0.995449C160.114 0.995008 160.106 0.994735 160.101 0.994569C160.09 0.994227 160.078 0.993983 160.068 0.993797C159.919 0.991117 159.32 0.988807 158.398 0.989333C156.543 0.990389 153.336 1.003 149.675 1.04929C142.39 1.14142 133.188 1.36745 129.358 1.91753L129.642 3.89722ZM55.0986 31.4365C69.2896 20.8309 99.1301 8.27963 129.642 3.89722L129.358 1.91753C98.5877 6.33701 68.4137 18.9886 53.9013 29.8345L55.0986 31.4365ZM2.03715 122.1C2.568 116.858 8.85012 66.0004 55.0986 31.4365L53.9013 29.8345C6.96659 64.9113 0.59544 116.486 0.0473294 121.898L2.03715 122.1ZM0 122.999H1.04224V120.999H0V122.999ZM1 532V121.999H-1V532H1ZM1440 531H0V533H1440V531ZM1439 121.999V532H1441V121.999H1439ZM1439.5 122.999H1440V120.999H1439.5V122.999ZM1438.5 82.9062V121.999H1440.5V82.9062H1438.5Z" fill="#130F41"/>
</svg>
