<svg width="159" height="159" viewBox="0 0 159 159" fill="none" xmlns="http://www.w3.org/2000/svg">
<g clip-path="url(#clip0_23_52)">
<path d="M3.2065 66.2699C0.00662491 66.2699 0 67.8466 0 69.801V91.8556H5.20725C6.30037 91.8755 6.79725 91.478 6.81713 90.4843V80.1758H16.3836C16.6089 80.1758 16.748 80.0565 16.748 79.8313V77.2475H6.82375V70.755C6.82375 69.6089 7.3935 69.0656 8.533 69.0656H16.96C17.2051 69.0656 17.2846 68.9066 17.2846 68.7344V66.2699H3.2065ZM56.1866 66.2699C55.4512 66.2699 54.8815 66.6144 54.8815 67.6611V85.2439C54.8815 87.7415 53.9341 89.4309 51.0854 89.835C49.1641 90.1066 46.5936 90.0338 45.474 89.994V92.1405C45.474 92.3393 45.5667 92.485 45.7986 92.538C45.9643 92.5778 47.1766 92.7301 49.9061 92.7301C54.6894 92.7301 56.8889 91.6966 58.1543 90.7956C60.5724 89.0533 61.4336 86.9862 61.4336 82.8986V66.2699H56.1866ZM22.2004 66.2699C21.2199 66.2699 20.9151 66.7336 20.9151 67.5882V85.1975C20.9151 88.7617 22.6376 90.9347 26.3079 92.0411C29.3752 92.9686 34.3241 92.9488 37.577 92.061C40.0282 91.3985 42.7909 89.5899 42.7909 85.1909V66.2699H37.6896C36.5501 66.2699 36.2388 66.7535 36.2388 67.5684V85.7739C36.2388 87.7216 35.8214 88.7088 34.7216 89.3249C33.1184 90.2193 30.4485 90.206 28.8717 89.2984C27.6991 88.616 27.4606 87.4434 27.4606 85.7673V66.2699H22.2004ZM83.8659 66.2699C80.666 66.2699 80.666 67.8533 80.666 69.801V76.3929C80.666 76.5254 80.5997 76.585 80.5468 76.6446L76.0616 80.1758H80.666V91.8556H85.8733C86.9597 91.8755 87.4633 91.478 87.4765 90.4843V80.1758H97.043C97.2682 80.1758 97.4074 80.0565 97.4074 79.8313V77.2475H87.4765V70.755C87.4765 69.6089 88.0529 69.0656 89.1858 69.0656H97.626C97.8645 69.0656 97.9573 68.9066 97.9573 68.7344V66.2699H83.8659ZM108.385 66.2699H103.297C102.138 66.2699 101.826 66.8131 101.826 67.6148V91.8623H107.014C107.928 91.8623 108.385 91.584 108.385 90.5107V66.2699ZM121.118 66.2699H116.083C114.937 66.25 114.566 66.7071 114.566 67.681V88.2715C114.566 89.9808 115.07 91.8556 118.482 91.8556H129.532C129.824 91.8556 129.963 91.6768 129.963 91.4184V89.093H123.139C121.781 89.0268 121.118 88.3311 121.118 86.9863V66.2699ZM159 66.2699H151.421C150.129 66.2699 149.394 66.8794 149.102 68.0321L144.928 85.6745H144.809L140.503 66.2765H134.607C133.467 66.2765 133.109 66.8595 133.109 67.7605V91.8556H135.601C135.998 91.8556 136.17 91.6569 136.17 91.2461V71.0465H136.561L141.888 91.8556H145.379C146.697 91.8556 147.188 91.319 147.512 90.0139L152.296 71.0465H152.68V91.8556H157.337C158.477 91.8556 159 91.4118 159 90.2855V66.2699ZM68.847 66.2765C67.7009 66.2765 67.3895 66.833 67.3895 67.6346V80.0234L73.5508 75.1871C73.7893 75.0016 73.9217 74.8559 73.935 74.4584V66.2765H68.847ZM67.3895 80.1758V91.8556H72.5636C73.4779 91.8556 73.9416 91.5906 73.9416 90.5107V80.1758H67.3895Z" fill="#EE1337"/>
</g>
<defs>
<clipPath id="clip0_23_52">
<rect width="159" height="159" fill="white"/>
</clipPath>
</defs>
</svg>
