<svg width="26" height="26" viewBox="0 0 26 26" fill="none" xmlns="http://www.w3.org/2000/svg">
<g id="gmail 1">
<path id="Vector" d="M6.34354 7.40959C6.09176 7.274 5.78722 7.28078 5.5417 7.42742C5.29619 7.57407 5.14584 7.83899 5.14584 8.12497V18.4167C5.14584 18.8654 5.50962 19.2292 5.95834 19.2292C6.40707 19.2292 6.77084 18.8654 6.77084 18.4167V9.48527L12.6148 12.632C12.8553 12.7616 13.1447 12.7616 13.3852 12.632L19.2292 9.48527V18.4167C19.2292 18.8654 19.593 19.2292 20.0417 19.2292C20.4904 19.2292 20.8542 18.8654 20.8542 18.4167V8.12497C20.8542 7.83899 20.7038 7.57407 20.4583 7.42742C20.2128 7.28078 19.9083 7.274 19.6564 7.40959L13 10.9939L6.34354 7.40959Z" fill="white"/>
<path id="Vector_2" fill-rule="evenodd" clip-rule="evenodd" d="M18.7531 4.03195C14.9254 3.68971 11.0747 3.68971 7.24687 4.03195L5.60307 4.17893C3.83983 4.33659 2.41517 5.68362 2.15908 7.43529C1.61958 11.1255 1.61958 14.8745 2.15908 18.5647C2.41517 20.3163 3.83983 21.6633 5.60307 21.821L7.24687 21.9679C11.0747 22.3103 14.9254 22.3103 18.7531 21.9679L20.3969 21.821C22.1602 21.6633 23.5848 20.3163 23.8409 18.5647C24.3804 14.8745 24.3804 11.1255 23.8409 7.43529C23.5848 5.68362 22.1602 4.33659 20.3969 4.17893L18.7531 4.03195ZM7.39158 5.6505C11.1231 5.31686 14.8769 5.31686 18.6084 5.6505L20.2523 5.79747C21.2664 5.88815 22.0857 6.66289 22.233 7.67036C22.7498 11.2046 22.7498 14.7953 22.233 18.3296C22.0857 19.3371 21.2664 20.1118 20.2523 20.2024L18.6084 20.3494C14.8769 20.6831 11.1231 20.6831 7.39158 20.3494L5.7478 20.2024C4.73367 20.1118 3.91428 19.3371 3.76699 18.3296C3.25028 14.7953 3.25028 11.2046 3.76699 7.67036C3.91428 6.66289 4.73367 5.88815 5.7478 5.79747L7.39158 5.6505Z" fill="white"/>
</g>
</svg>
