<svg width="381" height="458" viewBox="0 0 381 458" fill="none" xmlns="http://www.w3.org/2000/svg">
<rect x="0.5" y="0.5" width="380" height="456" rx="19.5" fill="white" stroke="white"/>
<mask id="path-2-inside-1_25_143" fill="white">
<path fill-rule="evenodd" clip-rule="evenodd" d="M381 9.59695V88.0112C381 283.646 229.577 443.913 37.5398 458.004H15C6.71571 458.004 0 451.289 0 443.004V15C0 6.71573 6.71573 0 15 0H367.003C373.382 0 378.831 3.98249 381 9.59695Z"/>
</mask>
<path fill-rule="evenodd" clip-rule="evenodd" d="M381 9.59695V88.0112C381 283.646 229.577 443.913 37.5398 458.004H15C6.71571 458.004 0 451.289 0 443.004V15C0 6.71573 6.71573 0 15 0H367.003C373.382 0 378.831 3.98249 381 9.59695Z" fill="#D9D9D9"/>
<path d="M381 9.59695H382V9.41053L381.933 9.23664L381 9.59695ZM37.5398 458.004V459.004H37.5764L37.613 459.002L37.5398 458.004ZM380 9.59695V88.0112H382V9.59695H380ZM380 88.0112C380 283.118 228.985 442.954 37.4666 457.007L37.613 459.002C230.169 444.873 382 284.173 382 88.0112H380ZM37.5398 457.004H15V459.004H37.5398V457.004ZM15 457.004C7.268 457.004 1 450.736 1 443.004H-1C-1 451.841 6.16343 459.004 15 459.004V457.004ZM1 443.004V15H-1V443.004H1ZM1 15C1 7.26802 7.26801 1 15 1V-1C6.16344 -1 -1 6.16345 -1 15H1ZM15 1H367.003V-1H15V1ZM367.003 1C372.955 1 378.043 4.71542 380.067 9.95726L381.933 9.23664C379.62 3.24955 373.809 -1 367.003 -1V1Z" fill="#D9D9D9" mask="url(#path-2-inside-1_25_143)"/>
</svg>
