<svg width="108" height="108" viewBox="0 0 108 108" fill="none" xmlns="http://www.w3.org/2000/svg">
<g clip-path="url(#clip0_23_54)">
<path d="M73.8281 25.542C73.3016 25.542 72.9506 25.6129 72.5963 25.7006V25.7546H72.6503C72.8966 26.2102 73.3016 26.5646 73.6155 26.9865C73.8619 27.4624 74.0711 27.9517 74.3006 28.4276L74.3715 28.3567C74.7934 28.0564 75.006 27.5839 75.006 26.8616C74.8305 26.649 74.7934 26.4229 74.6381 26.2271C74.4626 25.9267 74.0745 25.7715 73.8281 25.542ZM25.9639 84.9184H21.7991C21.6574 77.8882 21.2355 71.2766 20.5875 65.0734H20.5538L14.2088 84.9184H11.0261L4.73176 65.0734H4.67776C4.22214 71.0134 3.92176 77.6419 3.80026 84.9184H0.00338745C0.249762 76.059 0.864012 67.7632 1.84951 60.0277H7.01664L13.0275 78.3101H13.0613L19.1261 60.0277H24.0469C25.137 69.0997 25.7884 77.3955 25.9808 84.9184H25.9639ZM44.0336 66.5516C42.3461 75.762 40.095 82.4614 37.3376 86.6261C35.1574 89.8425 32.7848 91.4591 30.1995 91.4591C29.5144 91.4591 28.6706 91.2465 27.6514 90.8246V88.6106C28.161 88.6815 28.7415 88.7321 29.3929 88.7321C30.6045 88.7321 31.5731 88.3811 32.3123 87.7297C33.1898 86.9197 33.6319 86.0085 33.6319 85.0061C33.6319 84.3041 33.2978 82.8967 32.5958 80.7536L28.0429 66.5516H32.1401L35.4105 77.1694C36.1496 79.596 36.4669 81.2666 36.3251 82.2319C38.1341 77.4495 39.3829 72.2115 40.0883 66.5516H44.0336ZM99.5085 84.9184H87.6623V60.0277H91.6515V81.8606H99.5085V84.9184ZM84.5674 85.5191L79.9976 83.268C80.4026 82.9339 80.7874 82.566 81.1418 82.1441C83.0925 79.8761 84.0611 76.4842 84.0611 72.0191C84.0611 63.774 80.8279 59.6632 74.358 59.6632C71.1923 59.6632 68.715 60.6994 66.9398 62.7919C65.0059 65.0767 64.0204 68.4517 64.0204 72.9C64.0204 77.2774 64.881 80.4769 66.6056 82.5322C68.1885 84.3615 70.5611 85.293 73.7438 85.293C74.9216 85.293 76.0118 85.1512 76.9973 84.8542L82.9575 88.3339L84.591 85.5225L84.5674 85.5191ZM69.7511 79.9267C68.7319 78.3101 68.2391 75.708 68.2391 72.1204C68.2391 65.8462 70.1393 62.7176 73.953 62.7176C75.9409 62.7176 77.4158 63.4736 78.3473 64.9687C79.3496 66.6022 79.8593 69.1706 79.8593 72.7211C79.8593 79.0324 77.9423 82.215 74.1454 82.215C72.1406 82.215 70.6826 81.459 69.7343 79.9639L69.7511 79.9267ZM62.2958 78.03C62.2958 80.1394 61.5229 81.8809 59.9569 83.214C58.4111 84.5674 56.3524 85.2525 53.7334 85.2525C51.2899 85.2525 48.951 84.4796 46.6493 82.9305L47.7225 80.7874C49.6901 81.7729 51.4654 82.2656 53.0854 82.2656C54.5805 82.2656 55.7584 81.9315 56.6021 81.2801C57.4459 80.6119 57.9555 79.6804 57.9555 78.5025C57.9555 77.0242 56.9194 75.7586 55.0361 74.7056C53.2946 73.7404 49.7981 71.7525 49.7981 71.7525C47.898 70.3654 46.9665 68.8871 46.9665 66.4436C46.9665 64.422 47.6685 62.8054 49.0759 61.5735C50.5001 60.3079 52.3091 59.6936 54.5603 59.6936C56.862 59.6936 58.9714 60.3079 60.8715 61.5397L59.9063 63.6829C58.2896 62.9977 56.6899 62.6467 55.1239 62.6467C53.8414 62.6467 52.8559 62.964 52.1708 63.5782C51.4856 64.1925 51.0638 64.9654 51.0638 65.934C51.0638 67.4122 52.1201 68.6779 54.0506 69.7646C55.8259 70.7299 59.3933 72.7717 59.3933 72.7717C61.344 74.142 62.3126 75.6202 62.3126 78.0266L62.2958 78.03ZM104.504 51.6814C102.094 51.6274 100.231 51.8737 98.6681 52.542C98.2294 52.7175 97.5071 52.7175 97.4363 53.2811C97.6826 53.5275 97.7164 53.9156 97.929 54.2464C98.2969 54.8437 98.9145 55.6537 99.495 56.0756C100.13 56.5684 100.761 57.0611 101.412 57.483C102.59 58.2052 103.91 58.6271 105.067 59.346C105.719 59.7679 106.387 60.3112 107.035 60.7534C107.369 60.9829 107.578 61.3879 108 61.5262V61.4385C107.787 61.1753 107.737 60.7871 107.524 60.4732C107.224 60.1729 106.927 59.9096 106.626 59.6126C105.749 58.4347 104.676 57.4155 103.498 56.5717C102.533 55.9204 100.423 55.0057 100.035 53.8988L99.981 53.8279C100.632 53.7739 101.405 53.5275 102.036 53.352C103.056 53.0887 104.004 53.1394 105.06 52.8761C105.536 52.7546 106.009 52.6129 106.502 52.4542V52.191C105.958 51.6476 105.553 50.9085 104.99 50.3989C103.461 49.0792 101.773 47.7799 100.032 46.7066C99.0833 46.0924 97.8885 45.7042 96.8861 45.1946C96.5351 45.0191 95.9209 44.9314 95.7251 44.631C95.1818 43.9627 94.8645 43.1021 94.4764 42.309C93.6158 40.6552 92.772 38.8294 92.016 37.071C91.4726 35.8931 91.1554 34.7321 90.4871 33.642C87.3923 28.5255 84.0173 25.434 78.8501 22.3931C77.7431 21.7586 76.4066 21.4954 74.9993 21.1612C74.2433 21.1275 73.5041 21.0735 72.7481 21.0397C72.2554 20.8271 71.7829 20.2669 71.361 19.9834C69.6398 18.8932 65.2084 16.5544 63.9596 19.6492C63.1496 21.6169 65.1544 23.5339 65.8598 24.5194C66.3694 25.2214 67.0208 25.9976 67.3886 26.7705C67.6013 27.297 67.6519 27.8437 67.8645 28.3871C68.3404 29.7067 68.796 31.1816 69.4305 32.4135C69.7646 33.048 70.1156 33.7129 70.5375 34.2765C70.7839 34.6106 71.2058 34.7524 71.2935 35.2957C70.8716 35.91 70.8379 36.8077 70.6084 37.5469C69.5183 40.9556 69.9401 45.1575 71.469 47.6719C71.9618 48.4279 73.1025 50.0816 74.6348 49.4471C75.9881 48.9037 75.6911 47.196 76.0759 45.684C76.1636 45.3161 76.1096 45.0866 76.2885 44.8402V44.9111C76.7273 45.7549 77.1491 46.5649 77.5373 47.4086C78.4519 48.8869 80.0854 50.4157 81.4388 51.435C82.161 51.9784 82.7213 52.9132 83.619 53.244V53.1562H83.5481C83.3558 52.893 83.1094 52.7681 82.863 52.5589C82.3196 52.0155 81.7189 51.3472 81.2801 50.7499C80.0314 49.0624 78.9075 47.1994 77.922 45.2824C77.4293 44.334 77.0074 43.3147 76.6226 42.3832C76.4471 42.0322 76.4471 41.4855 76.1468 41.31C75.6911 41.9614 75.0229 42.5216 74.7056 43.3485C74.1251 44.631 74.0711 46.2307 73.845 47.8845C73.7404 47.9182 73.791 47.8845 73.7404 47.9554C72.7751 47.709 72.441 46.7235 72.0866 45.8797C71.172 43.7366 71.0303 40.3076 71.8065 37.8472C72.0191 37.2127 72.9135 35.2282 72.5625 34.6309C72.3701 34.0504 71.7728 33.7162 71.4555 33.2606C71.0505 32.697 70.6455 31.9781 70.3654 31.3436C69.6431 29.6561 69.2921 27.7931 68.5024 26.1056C68.1514 25.3327 67.5169 24.5227 67.0073 23.8039C66.4268 22.9939 65.7956 22.4167 65.3535 21.465C65.1949 21.1309 64.9856 20.5875 65.232 20.2331C65.286 19.9867 65.4075 19.899 65.6539 19.8281C66.042 19.494 67.1659 19.9159 67.554 20.1082C68.661 20.547 69.5925 20.9689 70.524 21.6034C70.9459 21.9037 71.4015 22.464 71.9483 22.6226H72.5828C73.548 22.8352 74.6213 22.6766 75.519 22.9567C77.1188 23.4664 78.5599 24.2055 79.8593 25.0121C83.7979 27.5265 87.0311 31.077 89.2283 35.3126C89.5961 35.9977 89.7548 36.6322 90.0889 37.3511C90.7031 38.8462 91.4963 40.338 92.1274 41.7622C92.7585 43.1865 93.3593 44.6276 94.2705 45.8055C94.7261 46.44 96.5216 46.7707 97.3451 47.088C97.9425 47.3681 98.874 47.6145 99.4005 47.9317C100.437 48.5662 101.456 49.2851 102.425 49.9871C102.917 50.3212 104.412 51.0772 104.5 51.6746L104.504 51.6814Z" fill="black"/>
</g>
<defs>
<clipPath id="clip0_23_54">
<rect width="108" height="108" fill="white"/>
</clipPath>
</defs>
</svg>
