<svg width="18" height="18" viewBox="0 0 18 18" fill="none" xmlns="http://www.w3.org/2000/svg">
<path d="M14.3333 6.33333V3.66667M14.3333 3.66667V1M14.3333 3.66667H11.6667M14.3333 3.66667H17M14.7778 17C7.16852 17 1 10.8315 1 3.22222C1 2.87892 1.01256 2.53854 1.03724 2.20154C1.06556 1.81477 1.07972 1.6214 1.18107 1.44536C1.26501 1.29956 1.41378 1.1613 1.56532 1.08822C1.74828 1 1.96167 1 2.38845 1H4.89273C5.25163 1 5.43108 1 5.58491 1.05907C5.72079 1.11124 5.84179 1.19599 5.93726 1.30587C6.04534 1.43025 6.10667 1.5989 6.22932 1.93619L7.26587 4.78671C7.40853 5.17914 7.47991 5.37535 7.46782 5.56151C7.45716 5.72566 7.40107 5.88363 7.30596 6.01783C7.1981 6.17003 7.01907 6.27745 6.661 6.49228L5.44444 7.22222C6.5128 9.5768 8.42231 11.4888 10.7778 12.5556L11.5077 11.339C11.7226 10.9809 11.83 10.8019 11.9821 10.694C12.1164 10.5989 12.2743 10.5428 12.4385 10.5322C12.6246 10.5201 12.8209 10.5915 13.2133 10.7341L16.0638 11.7707C16.4011 11.8933 16.5698 11.9547 16.6941 12.0628C16.804 12.1582 16.8888 12.2792 16.9409 12.4151C17 12.5689 17 12.7484 17 13.1073V15.6116C17 16.0383 17 16.2517 16.9117 16.4347C16.8387 16.5862 16.7004 16.735 16.5547 16.8189C16.3786 16.9203 16.1852 16.9344 15.7985 16.9628C15.4614 16.9875 15.1211 17 14.7778 17Z" stroke="white" stroke-width="1.5" stroke-linecap="round" stroke-linejoin="round"/>
</svg>
