<svg width="105" height="105" viewBox="0 0 105 105" fill="none" xmlns="http://www.w3.org/2000/svg">
<g clip-path="url(#clip0_23_56)">
<path d="M99.6931 66.9025C98.2231 65.0212 89.9719 66.01 86.2663 66.4519C85.1419 66.5875 84.9712 65.6075 85.9819 64.8944C92.5619 60.2744 103.342 61.6131 104.598 63.1575C105.858 64.7194 104.265 75.5256 98.1006 80.6881C97.1512 81.4756 96.25 81.0556 96.67 80.01C98.0569 76.545 101.163 68.7837 99.6887 66.9025M94.9069 72.3625C83.4138 80.85 66.745 85.3562 52.395 85.3562C32.2831 85.3562 14.1706 77.9187 0.463753 65.5462C-0.612497 64.575 0.350003 63.2494 1.645 64.0019C16.4325 72.6075 34.7156 77.7875 53.6025 77.7875C67.2203 77.7208 80.6907 74.9642 93.24 69.6762C95.1825 68.8537 96.81 70.9581 94.9069 72.3625ZM97.0156 50.3212C93.6862 50.3212 91.1269 49.4069 89.3375 47.5825C87.5481 45.7537 86.6556 43.1331 86.6556 39.7206C86.6556 36.225 87.57 33.4862 89.3988 31.4956C91.2275 29.5094 93.765 28.5119 97.0156 28.5119C99.5181 28.5119 101.474 29.1156 102.883 30.3275C104.296 31.535 105 33.1494 105 35.1619C105 37.1787 104.239 38.7056 102.725 39.7381C101.202 40.775 98.9625 41.2912 96.0094 41.2912C94.4781 41.2912 93.1481 41.1425 92.0194 40.8494C92.1813 42.6475 92.7238 43.9381 93.6512 44.7169C94.5788 45.4956 95.9831 45.8894 97.8644 45.8894C98.6169 45.8894 99.3519 45.8412 100.061 45.745C101.142 45.5808 102.213 45.3515 103.267 45.0581C103.334 45.0472 103.401 45.0413 103.469 45.0406C103.924 45.0406 104.151 45.3469 104.151 45.9681V47.8231C104.151 48.2519 104.094 48.5537 103.976 48.7287C103.79 48.9485 103.544 49.1096 103.267 49.1925C101.271 49.9515 99.1514 50.3342 97.0156 50.3212ZM95.6856 37.6644C97.0594 37.6644 98.0525 37.4544 98.6694 37.0387C99.2906 36.6231 99.5969 35.9844 99.5969 35.1225C99.5969 33.4294 98.5906 32.585 96.5781 32.585C93.9969 32.585 92.505 34.1687 92.0981 37.3406C93.1744 37.5594 94.3731 37.6644 95.6856 37.6644ZM52.6356 49.7175C52.2856 49.7175 52.0275 49.6387 51.8656 49.4769C51.7081 49.315 51.625 49.0569 51.625 48.7112V30.1262C51.625 29.75 51.7081 29.4875 51.8656 29.3387C52.0275 29.19 52.2856 29.12 52.6356 29.12H55.5363C56.1531 29.12 56.5294 29.4131 56.665 30.0037L56.9888 31.0931C58.4106 30.1525 59.6969 29.4875 60.8388 29.0981C61.9762 28.7044 63.1575 28.5119 64.365 28.5119C66.7844 28.5119 68.4906 29.3737 69.4838 31.0931C70.6815 30.266 71.9834 29.601 73.3556 29.1156C74.5631 28.7131 75.8144 28.5119 77.105 28.5119C78.9863 28.5119 80.4431 29.0369 81.48 30.0869C82.5125 31.1325 83.0288 32.5981 83.0288 34.4794V48.7112C83.0288 49.0612 82.9544 49.315 82.81 49.4769C82.6613 49.6387 82.3987 49.7175 82.0225 49.7175H78.1506C77.8006 49.7175 77.5469 49.6387 77.385 49.4769C77.2231 49.315 77.1444 49.0569 77.1444 48.7112V35.77C77.1444 33.9412 76.3219 33.0269 74.6856 33.0269C73.2331 33.0269 71.7675 33.3769 70.2888 34.0769V48.7112C70.2888 49.0612 70.2144 49.315 70.07 49.4769C69.9213 49.6387 69.6588 49.7175 69.2825 49.7175H65.415C65.065 49.7175 64.8069 49.6387 64.645 49.4769C64.4875 49.315 64.4044 49.0569 64.4044 48.7112V35.77C64.4044 33.9412 63.5863 33.0269 61.9456 33.0269C60.4406 33.0269 58.9619 33.39 57.5138 34.1162V48.7112C57.5138 49.0612 57.4394 49.315 57.2906 49.4769C57.1419 49.6387 56.8794 49.7175 56.5031 49.7175H52.6356ZM43.6931 25.9306C42.6694 25.9306 41.8556 25.6506 41.2344 25.0862C40.6131 24.5219 40.3069 23.7562 40.3069 22.7894C40.3069 21.8225 40.6131 21.0525 41.2344 20.4881C41.8513 19.9237 42.6694 19.6437 43.6931 19.6437C44.7125 19.6437 45.5306 19.9237 46.1519 20.4881C46.4639 20.7816 46.7085 21.1394 46.8686 21.5368C47.0288 21.9341 47.1007 22.3615 47.0794 22.7894C47.0794 23.7519 46.7731 24.5219 46.1519 25.0862C45.535 25.6506 44.7125 25.9306 43.6931 25.9306ZM41.755 49.7175C41.405 49.7175 41.1513 49.6344 40.9894 49.4769C40.8275 49.315 40.7488 49.0569 40.7488 48.7069V30.1262C40.7488 29.75 40.8275 29.4875 40.9894 29.3387C41.1513 29.19 41.4094 29.12 41.755 29.12H45.6269C46.0031 29.12 46.2656 29.19 46.4144 29.3387C46.5631 29.4875 46.6331 29.75 46.6331 30.1262V48.7069C46.6331 49.0569 46.5588 49.315 46.4144 49.4769C46.2656 49.6344 46.0031 49.7175 45.6269 49.7175H41.755ZM25.6506 49.7175C25.3006 49.7175 25.0425 49.6387 24.8806 49.4769C24.7231 49.315 24.64 49.0569 24.64 48.7112V30.1262C24.64 29.75 24.7231 29.4875 24.8806 29.3387C25.0425 29.19 25.3006 29.12 25.6506 29.12H28.5513C29.1681 29.12 29.5444 29.4131 29.68 30.0037L30.205 32.1781C31.2769 30.9969 32.2919 30.1569 33.2456 29.6625C34.2038 29.1637 35.2144 28.9187 36.2906 28.9187H36.8594C37.2313 28.9187 37.5025 28.9887 37.66 29.1375C37.8219 29.2862 37.905 29.5487 37.905 29.925V33.3069C37.905 33.6569 37.8306 33.915 37.6819 34.0769C37.5331 34.2344 37.2706 34.3175 36.8944 34.3175C36.6518 34.3133 36.4095 34.2987 36.1681 34.2737C35.7926 34.2442 35.416 34.2311 35.0394 34.2344C34.4269 34.2344 33.67 34.3219 32.7819 34.4969C31.8981 34.6719 31.1456 34.895 30.5288 35.1619V48.7112C30.5288 49.0612 30.45 49.315 30.3056 49.4769C30.1569 49.6387 29.8944 49.7175 29.5181 49.7175H25.6506ZM1.505 58.0212C1.155 58.0212 0.901253 57.9469 0.739378 57.8025C0.577503 57.6537 0.498753 57.3869 0.498753 57.015V30.1262C0.498753 29.75 0.577503 29.4875 0.739378 29.3387C0.901253 29.19 1.155 29.12 1.505 29.12H4.41C5.0225 29.12 5.40313 29.4131 5.53875 30.0037L5.81875 31.0537C6.66183 30.2497 7.65485 29.6194 8.74125 29.1987C9.84872 28.7482 11.0325 28.515 12.2281 28.5119C14.8356 28.5119 16.8963 29.4656 18.4144 31.3731C19.9369 33.285 20.6938 35.8619 20.6938 39.1169C20.6938 41.3481 20.3175 43.295 19.565 44.9619C18.8125 46.6244 17.7931 47.9106 16.5025 48.8119C15.2015 49.7148 13.6497 50.1862 12.0663 50.1594C10.9638 50.1594 9.91813 49.9844 8.92063 49.6344C7.98923 49.32 7.12753 48.8283 6.38313 48.1862V57.015C6.38313 57.3869 6.30875 57.6537 6.16438 57.8025C6.01563 57.9469 5.74875 58.0212 5.37688 58.0212H1.505ZM10.3338 45.7275C11.8388 45.7275 12.9456 45.2156 13.6588 44.1962C14.3719 43.1725 14.7306 41.5581 14.7306 39.3575C14.7306 37.1262 14.3806 35.4987 13.6806 34.4794C12.9806 33.4556 11.865 32.9481 10.3338 32.9481C8.93375 32.9481 7.62125 33.3112 6.38313 34.0331V44.6381C7.56438 45.3644 8.88125 45.7275 10.3338 45.7275Z" fill="#F5CB4A"/>
</g>
<defs>
<clipPath id="clip0_23_56">
<rect width="105" height="105" fill="white"/>
</clipPath>
</defs>
</svg>
