<svg width="15" height="15" viewBox="0 0 15 15" fill="none" xmlns="http://www.w3.org/2000/svg">
<path fill-rule="evenodd" clip-rule="evenodd" d="M10.3125 4.41438C10.3125 6.41125 9.10626 8.125 7.50001 8.125C5.89251 8.125 4.68751 6.41125 4.68751 4.41375C4.68751 2.4175 5.72501 1.25 7.50001 1.25C9.27501 1.25 10.3125 2.41688 10.3125 4.41438ZM2.56376 12.5887C2.80439 12.875 3.84064 13.75 7.50001 13.75C11.1594 13.75 12.195 12.875 12.4363 12.5894C12.4586 12.5619 12.4752 12.5302 12.4848 12.4961C12.4945 12.4621 12.4971 12.4264 12.4925 12.3913C12.4375 11.84 11.9413 9.375 7.50001 9.375C3.05876 9.375 2.56251 11.84 2.50689 12.3913C2.50236 12.4264 2.50507 12.4621 2.51485 12.4962C2.52463 12.5303 2.54128 12.5613 2.56376 12.5887Z" fill="#0DCB80"/>
</svg>
