<svg width="41" height="43" viewBox="0 0 41 43" fill="none" xmlns="http://www.w3.org/2000/svg">
<path fill-rule="evenodd" clip-rule="evenodd" d="M9.08474 -0.000218293C4.06733 -0.000218293 0.000169277 4.06694 0.000169277 9.08435C0.000169277 14.1015 4.06733 18.1689 9.08474 18.1689C9.95595 18.1689 10.7984 18.0463 11.5957 17.8173C10.5498 25.4753 7.69965 31.7839 1.14392 36.9958C-0.165167 38.0366 -0.382899 39.9416 0.65789 41.2507C1.69868 42.5598 3.60371 42.7774 4.9128 41.7366C15.9445 32.9664 18.1693 21.5653 18.1693 9.08435C18.1693 4.06694 14.1021 -0.000218293 9.08474 -0.000218293Z" fill="black"/>
<path fill-rule="evenodd" clip-rule="evenodd" d="M31.7528 0.605247C26.7354 0.605247 22.6683 4.67241 22.6683 9.68982C22.6683 14.7069 26.7354 18.7744 31.7528 18.7744C32.624 18.7744 33.4665 18.6517 34.2638 18.4228C33.2179 26.0808 30.3677 32.3894 23.812 37.6013C22.5029 38.6421 22.2852 40.547 23.326 41.8562C24.3668 43.1653 26.2718 43.3829 27.5809 42.3421C38.6126 33.5719 40.8374 22.1708 40.8374 9.68982C40.8374 4.67241 36.7702 0.605247 31.7528 0.605247Z" fill="black"/>
</svg>
