<svg width="41" height="43" viewBox="0 0 41 43" fill="none" xmlns="http://www.w3.org/2000/svg">
<path fill-rule="evenodd" clip-rule="evenodd" d="M31.7527 43.0002C36.7701 43.0002 40.8372 38.9331 40.8372 33.9157C40.8372 28.8985 36.7701 24.8311 31.7527 24.8311C30.8815 24.8311 30.039 24.9537 29.2417 25.1827C30.2876 17.5247 33.1378 11.2161 39.6935 6.00416C41.0026 4.9634 41.2203 3.05843 40.1795 1.74931C39.1387 0.440192 37.2337 0.222617 35.9246 1.26341C24.8929 10.0336 22.6681 21.4347 22.6681 33.9157C22.6681 38.9331 26.7353 43.0002 31.7527 43.0002Z" fill="black"/>
<path fill-rule="evenodd" clip-rule="evenodd" d="M9.08457 42.3948C14.102 42.3948 18.1691 38.3276 18.1691 33.3102C18.1691 28.2931 14.102 24.2256 9.08457 24.2256C8.21336 24.2256 7.37092 24.3483 6.57359 24.5772C7.61953 16.9192 10.4697 10.6106 17.0254 5.39869C18.3345 4.35793 18.5522 2.45296 17.5114 1.14384C16.4706 -0.165276 14.5656 -0.382852 13.2565 0.657937C2.22481 9.42812 0 20.8292 0 33.3102C0 38.3276 4.06716 42.3948 9.08457 42.3948Z" fill="black"/>
</svg>
