<svg width="159" height="159" viewBox="0 0 159 159" fill="none" xmlns="http://www.w3.org/2000/svg">
<g clip-path="url(#clip0_23_58)">
<path d="M131.284 68.1116L131.597 85.9445H131.443L126.266 68.1116H117.779V90.5754H123.394L123.081 72.1214H123.235L128.775 90.5754H136.899V68.1116H131.284ZM24.3022 68.1116L20.0588 90.8089H26.1903L29.3206 70.1588H29.4498L32.5056 90.8089H38.5873L34.3937 68.1116H24.3022ZM58.6163 68.1116L55.8189 85.4228H55.6649L52.8427 68.1116H43.5759L43.1337 90.8089H48.8279L48.9819 70.3923H49.0316L52.8377 90.8089H58.6064L62.4125 70.3923H62.5665L62.7205 90.8089H68.4147L67.8731 68.1116H58.6163ZM10.4791 84.3644C10.7126 84.8812 10.6331 85.6563 10.5586 86.019C10.4046 86.7941 9.858 87.5444 8.35744 87.5444C6.90656 87.5444 6.08175 86.7146 6.08175 85.5023V83.3011H0V85.0352C0 90.1331 4.00978 91.6337 8.28291 91.6337C12.3722 91.6337 15.7857 90.2126 16.3323 86.4861C16.6453 84.5184 16.4118 83.2266 16.3323 82.7595C15.269 77.9696 6.60347 76.6281 6.00722 73.9599C5.92772 73.4928 5.92772 73.0555 6.00722 72.7425C6.16125 71.9922 6.678 71.2171 8.04937 71.2171C9.42075 71.2171 10.171 72.0469 10.171 73.2593V74.6306H15.8652V73.0506C15.8652 68.1067 11.3884 67.3564 8.20341 67.3564C4.16381 67.3564 0.829781 68.7029 0.233531 72.35C0.0795 73.3338 0 74.2629 0.313031 75.4058C1.21734 80.0913 9.34622 81.4627 10.4841 84.3595L10.4791 84.3644ZM84.3644 84.3644C84.5979 84.8812 84.5184 85.5818 84.4439 86.019C84.2899 86.7941 83.7433 87.5444 82.2428 87.5444C80.7919 87.5444 79.9671 86.7146 79.9671 85.5023V83.3011H73.8853V85.0352C73.8853 90.0536 77.8206 91.584 82.0887 91.584C86.178 91.584 89.517 90.2126 90.0586 86.4066C90.3716 84.4389 90.1381 83.2216 90.0586 82.68C89.1543 77.9696 80.5633 76.5486 79.9671 73.9599C79.8876 73.4928 79.8876 73.0555 79.9671 72.7425C80.0963 71.9922 80.6378 71.2171 82.0092 71.2171C83.3011 71.2171 84.1309 72.0469 84.1309 73.2593V74.6306H89.7456V73.0506C89.7456 68.1067 85.3482 67.3564 82.1632 67.3564C78.1236 67.3564 74.8642 68.6234 74.2679 72.35C74.1139 73.3338 74.1139 74.2629 74.3176 75.4058C75.2517 80.0913 83.2216 81.3832 84.3594 84.3595L84.3644 84.3644ZM103.489 87.3954C105.094 87.3954 105.531 86.332 105.69 85.7408C105.77 85.5072 105.77 85.1197 105.77 84.8861V68.1166H111.538V84.4439C111.538 84.8861 111.538 85.7358 111.459 85.9445C111.096 90.2126 107.732 91.584 103.564 91.584C99.3949 91.584 96.0608 90.2126 95.6683 85.9445C95.6683 85.7358 95.5888 84.8812 95.5888 84.4439V68.1166H101.358V84.8861C101.358 85.1992 101.358 85.5072 101.437 85.7408C101.437 86.337 101.904 87.3954 103.479 87.3954H103.489ZM150.876 87.1618C152.561 87.1618 153.077 86.0985 153.231 85.5072C153.311 85.2737 153.311 84.8861 153.311 84.6774V81.3931H150.956V78.0541H159.005V84.1359C159.005 84.6029 159.005 84.8861 158.925 85.6613C158.538 89.83 154.965 91.276 150.956 91.276C146.916 91.276 143.373 89.8251 142.986 85.6613C142.906 84.8861 142.906 84.5979 142.906 84.1359V74.5611C142.906 74.1984 142.986 73.4232 142.986 73.0605C143.502 68.7924 146.921 67.421 150.956 67.421C154.965 67.421 158.458 68.7924 158.925 73.0605C159.005 73.7313 159.005 74.5611 159.005 74.5611V75.3362H153.311V74.0443C153.311 74.0443 153.311 73.5027 153.231 73.1897C153.152 72.6729 152.69 71.5351 150.956 71.5351C149.271 71.5351 148.834 72.5984 148.68 73.1897C148.6 73.5027 148.6 73.8903 148.6 74.2779V84.6824C148.6 84.9656 148.6 85.2787 148.68 85.5122C148.68 86.1084 149.276 87.1668 150.881 87.1668L150.876 87.1618Z" fill="#0C4DA2"/>
</g>
<defs>
<clipPath id="clip0_23_58">
<rect width="159" height="159" fill="white"/>
</clipPath>
</defs>
</svg>
