<svg width="22" height="22" viewBox="0 0 22 22" fill="none" xmlns="http://www.w3.org/2000/svg">
<path d="M10.3125 4.125V9.625C10.3126 9.7153 10.2948 9.80472 10.2603 9.88816C10.2257 9.97159 10.1751 10.0474 10.1113 10.1113C10.0474 10.1751 9.97159 10.2257 9.88816 10.2603C9.80472 10.2948 9.7153 10.3126 9.625 10.3125H4.125C4.0347 10.3126 3.94528 10.2948 3.86184 10.2603C3.77841 10.2257 3.7026 10.1751 3.63875 10.1113C3.5749 10.0474 3.52426 9.97159 3.48973 9.88816C3.4552 9.80472 3.43745 9.7153 3.4375 9.625V4.125C3.43745 4.0347 3.4552 3.94528 3.48973 3.86184C3.52426 3.77841 3.5749 3.7026 3.63875 3.63875C3.7026 3.5749 3.77841 3.52426 3.86184 3.48973C3.94528 3.4552 4.0347 3.43745 4.125 3.4375H9.625C9.7153 3.43745 9.80472 3.4552 9.88816 3.48973C9.97159 3.52426 10.0474 3.5749 10.1113 3.63875C10.1751 3.7026 10.2257 3.77841 10.2603 3.86184C10.2948 3.94528 10.3126 4.0347 10.3125 4.125ZM17.875 3.4375H12.375C12.2847 3.43745 12.1953 3.4552 12.1118 3.48973C12.0284 3.52426 11.9526 3.5749 11.8887 3.63875C11.8249 3.7026 11.7743 3.77841 11.7397 3.86184C11.7052 3.94528 11.6874 4.0347 11.6875 4.125V9.625C11.6874 9.7153 11.7052 9.80472 11.7397 9.88816C11.7743 9.97159 11.8249 10.0474 11.8887 10.1113C11.9526 10.1751 12.0284 10.2257 12.1118 10.2603C12.1953 10.2948 12.2847 10.3126 12.375 10.3125H17.875C17.9653 10.3126 18.0547 10.2948 18.1382 10.2603C18.2216 10.2257 18.2974 10.1751 18.3613 10.1113C18.4251 10.0474 18.4757 9.97159 18.5103 9.88816C18.5448 9.80472 18.5626 9.7153 18.5625 9.625V4.125C18.5626 4.0347 18.5448 3.94528 18.5103 3.86184C18.4757 3.77841 18.4251 3.7026 18.3613 3.63875C18.2974 3.5749 18.2216 3.52426 18.1382 3.48973C18.0547 3.4552 17.9653 3.43745 17.875 3.4375ZM9.625 11.6875H4.125C4.0347 11.6874 3.94528 11.7052 3.86184 11.7397C3.77841 11.7743 3.7026 11.8249 3.63875 11.8887C3.5749 11.9526 3.52426 12.0284 3.48973 12.1118C3.4552 12.1953 3.43745 12.2847 3.4375 12.375V17.875C3.43745 17.9653 3.4552 18.0547 3.48973 18.1382C3.52426 18.2216 3.5749 18.2974 3.63875 18.3613C3.7026 18.4251 3.77841 18.4757 3.86184 18.5103C3.94528 18.5448 4.0347 18.5626 4.125 18.5625H9.625C9.7153 18.5626 9.80472 18.5448 9.88816 18.5103C9.97159 18.4757 10.0474 18.4251 10.1113 18.3613C10.1751 18.2974 10.2257 18.2216 10.2603 18.1382C10.2948 18.0547 10.3126 17.9653 10.3125 17.875V12.375C10.3126 12.2847 10.2948 12.1953 10.2603 12.1118C10.2257 12.0284 10.1751 11.9526 10.1113 11.8887C10.0474 11.8249 9.97159 11.7743 9.88816 11.7397C9.80472 11.7052 9.7153 11.6874 9.625 11.6875ZM17.875 11.6875H12.375C12.2847 11.6874 12.1953 11.7052 12.1118 11.7397C12.0284 11.7743 11.9526 11.8249 11.8887 11.8887C11.8249 11.9526 11.7743 12.0284 11.7397 12.1118C11.7052 12.1953 11.6874 12.2847 11.6875 12.375V17.875C11.6874 17.9653 11.7052 18.0547 11.7397 18.1382C11.7743 18.2216 11.8249 18.2974 11.8887 18.3613C11.9526 18.4251 12.0284 18.4757 12.1118 18.5103C12.1953 18.5448 12.2847 18.5626 12.375 18.5625H17.875C17.9653 18.5626 18.0547 18.5448 18.1382 18.5103C18.2216 18.4757 18.2974 18.4251 18.3613 18.3613C18.4251 18.2974 18.4757 18.2216 18.5103 18.1382C18.5448 18.0547 18.5626 17.9653 18.5625 17.875V12.375C18.5626 12.2847 18.5448 12.1953 18.5103 12.1118C18.4757 12.0284 18.4251 11.9526 18.3613 11.8887C18.2974 11.8249 18.2216 11.7743 18.1382 11.7397C18.0547 11.7052 17.9653 11.6874 17.875 11.6875Z" fill="white"/>
</svg>
