<svg width="25" height="25" viewBox="0 0 25 25" fill="none" xmlns="http://www.w3.org/2000/svg">
<path d="M23.6649 2.24198L16.1797 21.9763C15.875 22.7803 15.1281 22.9404 14.5211 22.3326C14.5211 22.3326 9.80548 17.617 9.37579 17.1873C8.9461 16.7576 9.09532 15.9131 9.70782 15.3099L20.1109 5.06776C20.7234 4.46463 20.6664 4.39901 19.9836 4.92166L8.27188 13.8935C7.58985 14.4162 6.53438 14.3467 5.92657 13.7389L2.66719 10.4795C2.05938 9.87166 2.21954 9.12557 3.02344 8.8201L22.7578 1.33494C23.5617 1.03026 23.9695 1.43807 23.6649 2.24198ZM6.80235 15.7193C6.49844 15.4154 6.25001 15.5185 6.25001 15.9482V19.531C6.25001 19.9607 6.55157 20.131 6.91954 19.9099L8.79532 18.7842C9.16407 18.5631 9.21641 18.1334 8.91251 17.8295L6.80235 15.7193Z" fill="white"/>
</svg>
