<svg width="22" height="22" viewBox="0 0 22 22" fill="none" xmlns="http://www.w3.org/2000/svg">
<path d="M20.3524 3.79312H1.64764C0.737645 3.79312 0 4.53077 0 5.44076V16.5593C0 17.4693 0.737645 18.2069 1.64764 18.2069H20.3524C21.2623 18.2069 22 17.4693 22 16.5593V5.44076C22 4.53077 21.2624 3.79312 20.3524 3.79312Z" fill="#41479B"/>
<path d="M21.9772 5.16836C21.8473 4.38809 21.1695 3.79306 20.3524 3.79306H19.9237L12.8966 8.39703V3.7931H9.10345V8.39708L2.07634 3.7931H1.64764C0.8305 3.7931 0.152668 4.38809 0.0228164 5.1684L6.0289 9.10348H0V12.8966H6.0289L0.0228164 16.8316C0.152668 17.6119 0.8305 18.2069 1.64764 18.2069H2.07634L9.10345 13.6029V18.2069H12.8966V13.6029L19.9237 18.2069H20.3524C21.1695 18.2069 21.8473 17.6119 21.9772 16.8316L15.9711 12.8965H22V9.1034H15.9711L21.9772 5.16836Z" fill="#F5F5F5"/>
<path d="M12.1379 3.79312H9.86206V9.86207H0V12.138H9.86206V18.2069H12.1379V12.138H22V9.86207H12.1379V3.79312Z" fill="#FF4B55"/>
<path d="M1.06534 18.1007L9.08258 12.8966H7.68919L0.396362 17.6305C0.574812 17.8388 0.804136 18.002 1.06534 18.1007Z" fill="#FF4B55"/>
<path d="M14.8839 12.8966H13.4905L21.2556 17.937C21.4729 17.7943 21.6542 17.6016 21.7836 17.3752L14.8839 12.8966Z" fill="#FF4B55"/>
<path d="M0.17395 4.70402L6.95141 9.10346H8.3448L0.664911 4.11823C0.458704 4.27171 0.289966 4.47237 0.17395 4.70402Z" fill="#FF4B55"/>
<path d="M14.2899 9.10345L21.5961 4.36078C21.4157 4.15319 21.1846 3.99094 20.9216 3.89413L12.8965 9.10345H14.2899Z" fill="#FF4B55"/>
</svg>
