<svg width="117" height="117" viewBox="0 0 117 117" fill="none" xmlns="http://www.w3.org/2000/svg">
<path d="M80.6276 44.7817C78.3614 43.956 75.9659 43.5416 73.554 43.5581C65.754 43.5581 60.2452 47.4874 60.2062 53.1277C60.1575 57.2715 64.1209 59.6066 67.119 60.9911C70.1951 62.4146 71.2237 63.3116 71.214 64.584C71.1945 66.5194 68.757 67.3969 66.4901 67.3969C63.375 67.3969 61.6736 66.963 59.0557 65.8759L58.0856 65.4225L56.979 71.916C58.8754 72.7057 62.2927 73.3834 65.8222 73.4419C74.1146 73.4419 79.5356 69.537 79.599 63.5359C79.6672 60.2257 77.5222 57.7249 73.008 55.6579C70.2634 54.3172 68.562 53.4202 68.562 52.0601C68.562 50.856 70.0196 49.569 73.0665 49.569C75.0943 49.5199 77.1095 49.9004 78.9799 50.6854L79.7111 51.012L80.8177 44.7379L80.6276 44.7817ZM100.869 44.0846H94.7749C92.8785 44.0846 91.4501 44.6062 90.6214 46.488L78.9019 73.0372H87.1942L88.8517 68.6839L98.9722 68.6936C99.2111 69.7125 99.9424 73.0372 99.9424 73.0372H107.255L100.869 44.0846ZM48.9889 43.8409H56.8912L51.948 72.8081H44.0554L48.9889 43.8311V43.8409ZM28.9282 59.8065L29.7472 63.8284L37.4692 44.0846H45.8396L33.4035 72.9982H25.0526L18.2276 48.516C18.1171 48.1123 17.8575 47.7656 17.5012 47.5459C15.0413 46.2751 12.4349 45.3108 9.74023 44.6745L9.84748 44.0651H22.5664C24.2921 44.1334 25.6815 44.6745 26.1446 46.5172L28.9234 59.8211L28.9282 59.8065ZM91.1186 62.7607L94.2679 54.6585C94.2289 54.7462 94.9162 52.9864 95.316 51.8992L95.8571 54.4001L97.6852 62.7559H91.1137L91.1186 62.7607Z" fill="#1A1F71"/>
</svg>
